<?xml version="1.0" encoding="UTF-8"?><!DOCTYPE svg PUBLIC "-//W3C//DTD SVG 1.1//EN" "http://www.w3.org/Graphics/SVG/1.1/DTD/svg11.dtd"><svg xmlns="http://www.w3.org/2000/svg" xmlns:xlink="http://www.w3.org/1999/xlink"><defs><style id="locale-globe_undefined"/><linearGradient id="PbV_horizontal_linear-gradient" x1="242.73" y1="-17" x2="216.92" y2="-42.82" gradientTransform="matrix(1 0 0 -1 -30.22 -8.11)" gradientUnits="userSpaceOnUse"><stop offset="0" stop-color="#fff"/><stop offset=".16" stop-color="#f9f9f9"/><stop offset=".36" stop-color="#e9e9e9"/><stop offset=".59" stop-color="#cecece"/><stop offset=".84" stop-color="#a8a9a9"/><stop offset="1" stop-color="#8c8d8d"/></linearGradient></defs><symbol id="article" viewBox="0 0 18 13.81"><path d="M18 0v12c0 1.2-.6 1.8-1.7 1.8h-14c-1.7.1-2.3-.6-2.3-2.7V2.4h2.6V0zM2.6 3.4H1v7.7c0 1.1.3 1.6.6 1.6.5 0 1-.5 1-1.6zM17 1H3.6v10.1a4 4 0 01-.4 1.8h13.1c.4 0 .7-.5.7-.8V1zM8.7 5.7h-3v-.4h3.1c-.1-.1-.1.4-.1.4zm0 1.4h-3v-.4h3.1c-.1 0-.1.4-.1.4zm0 1.4h-3V8h3.1c-.1 0-.1.5-.1.5zm0 1.3h-3v-.4h3.1c-.1 0-.1.4-.1.4zm0 1.4h-3v-.4h3.1c-.1-.1-.1.4-.1.4zM6.1 3h8.1v.8H6.1zM10 5.2h5.2v4.9H10z"/></symbol><symbol id="blog" viewBox="0 0 18 18"><path d="M2.5 0v2.9a12.61 12.61 0 0112.6 12.6H18A15.45 15.45 0 002.5 0"/><path d="M2.5 6v2.9a6.66 6.66 0 016.6 6.6H12A9.56 9.56 0 002.5 6"/><circle cx="2.5" cy="15.5" r="2.5"/></symbol><symbol id="book" viewBox="0 0 19.02 17.85"><path d="M18.8 7.63a1 1 0 00-.4-.1l-7.5 9.5-10-2.9v-4.6l9.5 2.5c.4.1.5-.1.8-.5l7.3-9c.3-.4-.1-.8-.5-.8L8.8.03c-.4-.1-.5.1-.8.5L.3 8.83v.1c-.2.1-.3.2-.3.4v5a.85.85 0 00.7.8l10.2 2.7c.4.1.5-.1.8-.5l7-8.7c.3-.5.5-.9.1-1m-12-3.7s.6-.7.9-1 .6-.6.9-.6l5.3 1.1c.7.1.8.3.6.5a5.67 5.67 0 01-.6.9c-.4.5-.9 1-1 .9S7 4.53 6.8 4.43s0-.5 0-.5"/></symbol><symbol id="bottom-right-arrow" viewBox="0 0 48 48"><path d="M15.8 32.2h16.5l-6-5.6 1.3-1.5 8.7 8.1-8.7 8.1-1.3-1.5 6-5.6H13.8L0 48h48V0L15.8 32.2z"/><path fill="#fff" d="M26.3 39.8l1.3 1.5 8.7-8.1-8.7-8.1-1.3 1.5 6 5.6H15.8l-2 2h18.5l-6 5.6z"/></symbol><symbol id="carat-thin" viewBox="0 0 14 7.6"><path d="M0 .6L.6 0 7 6.4 13.4 0l.6.6-7 7-7-7z"/></symbol><symbol id="carat" viewBox="0 0 16 10"><path d="M16 2l-8 8-8-8 2-2 6 6 6-6 2 2z"/></symbol><symbol id="caratx2" viewBox="0 0 21 17.53"><path d="M8.77 17.53L0 8.77 8.77 0l2.19 2.19-6.58 6.58 6.58 6.57-2.19 2.19z"/><path d="M18.81 17.53l-8.77-8.76L18.81 0 21 2.19l-6.57 6.58L21 15.34l-2.19 2.19z"/></symbol><symbol id="careers-inherit" viewBox="0 0 34 34"><g fill="currentColor"><path d="M12.8 15.3c.7 1.8 2.5 2.9 4.2 2.9 1.7 0 3.5-1.2 4.2-2.9l.3-1c.4-1 .6-2.6.6-3.7-.1-2.7-1.9-4.9-4.4-4.9h-1.4c-2.4 0-4.3 2.2-4.4 4.9 0 1.1.2 2.8.6 3.7l.3 1z"/><path d="M18.3 19.4h-2.5c-.4 0-.7.4-.4 1l.6 1.7c.1.2.3.4.4.4h1.3c.2 0 .3-.1.4-.4l.6-1.7c.2-.6 0-1-.4-1z"/><path d="M17 0C7.6 0 0 7.6 0 17s7.6 17 17 17 17-7.6 17-17S26.4 0 17 0zm0 2.5C25 2.5 31.6 9 31.6 17c0 2.7-.8 5.3-2.1 7.5-.2-1.4-1.1-2.6-2.5-3.1l-5.2-1.9c-.7-.2-1.4.2-1.5.9l-2 6.4-.2-3.3c0-.3-.2-.5-.4-.5h-1.5c-.2 0-.3.2-.4.5l-.2 3.7-2.1-6.8c-.1-.7-.8-1.1-1.5-.9l-5 1.9c-1.3.5-2.3 1.7-2.5 3.1-1.3-2.2-2.1-4.7-2.1-7.5C2.5 9 9 2.5 17 2.5z"/></g></symbol><symbol id="careers" viewBox="0 0 34 34"><g fill="#fff"><path d="M12.8 15.3c.7 1.8 2.5 2.9 4.2 2.9 1.7 0 3.5-1.2 4.2-2.9l.3-1c.4-1 .6-2.6.6-3.7-.1-2.7-1.9-4.9-4.4-4.9h-1.4c-2.4 0-4.3 2.2-4.4 4.9 0 1.1.2 2.8.6 3.7l.3 1z"/><path d="M18.3 19.4h-2.5c-.4 0-.7.4-.4 1l.6 1.7c.1.2.3.4.4.4h1.3c.2 0 .3-.1.4-.4l.6-1.7c.2-.6 0-1-.4-1z"/><path d="M17 0C7.6 0 0 7.6 0 17s7.6 17 17 17 17-7.6 17-17S26.4 0 17 0zm0 2.5C25 2.5 31.6 9 31.6 17c0 2.7-.8 5.3-2.1 7.5-.2-1.4-1.1-2.6-2.5-3.1l-5.2-1.9c-.7-.2-1.4.2-1.5.9l-2 6.4-.2-3.3c0-.3-.2-.5-.4-.5h-1.5c-.2 0-.3.2-.4.5l-.2 3.7-2.1-6.8c-.1-.7-.8-1.1-1.5-.9l-5 1.9c-1.3.5-2.3 1.7-2.5 3.1-1.3-2.2-2.1-4.7-2.1-7.5C2.5 9 9 2.5 17 2.5z"/></g></symbol><symbol id="cc_noPBV" viewBox="0 0 80 32"><circle fill="#F5842B" cx="21.8" cy="20.8" r="3.9"/><path d="M42.6 24.6c-1.2.5-2.5.8-4 .8-1.4 0-2.7-.2-3.8-.7-1.2-.5-2.2-1.1-3-1.9-.9-.8-1.5-1.8-2-3S29 17.4 29 16s.2-2.7.7-3.9c.5-1.2 1.2-2.1 2.1-3 .9-.8 1.9-1.4 3.1-1.9 1.2-.4 2.4-.7 3.8-.7 1.3 0 2.5.2 3.7.7 1.2.4 2.2 1.1 3 2l-2.9 2.9c-.4-.6-.9-1-1.6-1.2-.7-.3-1.3-.4-2-.4-.8 0-1.4.1-2.1.4-.6.3-1.2.7-1.6 1.1-.5.5-.8 1.1-1.1 1.7-.3.7-.4 1.4-.4 2.2 0 .8.1 1.5.4 2.2.3.7.6 1.2 1 1.7s1 .9 1.6 1.1c.6.3 1.3.4 2 .4.9 0 1.6-.2 2.2-.5.6-.3 1.2-.8 1.5-1.3l3 2.8c-.6 1.1-1.6 1.8-2.8 2.3z"/><path d="M59.2 24.6c-1.2.5-2.5.8-4 .8-1.4 0-2.6-.2-3.8-.7-1.2-.5-2.2-1.1-3-1.9-.9-.8-1.5-1.8-2-3s-.7-2.4-.7-3.8.2-2.7.7-3.9c.5-1.2 1.2-2.1 2.1-3 .9-.8 1.9-1.4 3.1-1.9 1.2-.4 2.4-.7 3.8-.7 1.3 0 2.5.2 3.7.7 1.2.4 2.2 1.1 3 2l-2.9 2.9c-.4-.6-.9-1-1.6-1.2-.7-.3-1.3-.4-2-.4-.8 0-1.4.1-2.1.4-.6.3-1.2.7-1.6 1.1-.5.5-.8 1.1-1.1 1.7-.3.7-.4 1.4-.4 2.2 0 .8.1 1.5.4 2.2.3.7.6 1.2 1 1.7s1 .9 1.6 1.1c.6.3 1.3.4 2 .4.9 0 1.6-.2 2.2-.5.6-.3 1.1-.8 1.5-1.3l3 2.8c-.7 1.1-1.7 1.8-2.9 2.3z"/></symbol><symbol id="chat" viewBox="0 0 24 24"><path d="M20.8 3.2H3.1c-.6 0-1.1.4-1.1 1v12.6c0 .6.5 1.1 1.1 1.1h3.4l-.4 2.9 5.5-2.9H21c.6 0 1.1-.5 1.1-1.1V4.2c-.2-.6-.7-1-1.3-1m.2 13.6c0 .1-.1.1 0 0l-9.7.1-4 2.1.3-2.1H3.1c-.1 0-.2 0-.2-.1V4.2c0-.1.1-.1.1-.1h17.7c.1 0 .1.1.1.1v12.6h.2z"/></symbol><symbol id="circle-1" viewBox="0 0 20 20"><path d="M20 10A10 10 0 109.8 20V8.5c-.8.4-1.1.5-3.4.5V6.5A7.51 7.51 0 009 6a3.14 3.14 0 001.6-1.7h2.8v15.2A10.29 10.29 0 0020 10z"/></symbol><symbol id="circle-2" viewBox="0 0 20 18.5"><path d="M20 10a10 10 0 00-20 0 10.26 10.26 0 004.6 8.5v-1.3c1.2-1 2-1.5 3.6-3 1.9-1.6 3.2-3 3.2-5.5 0-.6 0-2.2-1.6-2.2a1.66 1.66 0 00-1.7 1.9c0 .4.1 1 .1 1.5l-3.6-.1v-.5c0-3.7 2.4-5.4 5.5-5.4 3.3 0 5.4 1.7 5.4 4.8 0 2.7-1.5 4.8-6.1 8.4 0 0 5.5-.1 6.2-.1v1.4A10.41 10.41 0 0020 10z"/></symbol><symbol id="circle-3" viewBox="0 0 20 19.6"><path d="M20 10a10 10 0 10-13.6 9.4A5 5 0 014.3 15v-.4l3.6-.3v.6c0 1.5.8 2.4 1.9 2.4 1.3 0 2.1-.8 2.1-2.4 0-1.8-1.4-2-2.4-2H9v-2.6h.5a1.81 1.81 0 002-1.9 1.65 1.65 0 00-1.7-1.8c-1.6 0-1.6 1.6-1.6 2.3l-3.6-.4c.3-3.7 2.9-4.7 5.5-4.7 4.3 0 5.2 2.7 5.2 4.3a3.51 3.51 0 01-2.6 3.5 3.46 3.46 0 013 3.6 4.91 4.91 0 01-2.8 4.4A9.93 9.93 0 0020 10z"/></symbol><symbol id="circle-arrow" viewBox="0 0 24 24"><path d="M1.5 12c0 5.8 4.7 10.5 10.5 10.5S22.5 17.8 22.5 12 17.8 1.5 12 1.5 1.5 6.2 1.5 12zm20.2 0c0 5.4-4.3 9.7-9.7 9.7S2.3 17.4 2.3 12 6.6 2.3 12 2.3s9.7 4.3 9.7 9.7z"/><path d="M15.6 11.6H6.8v.8h8.8l-2.7 2.4.7.7 3.6-3.5-3.6-3.5-.7.7z"/></symbol><symbol id="demo" viewBox="-599 385 24 24"><path d="M-590.8 407.3h8.1v-.4c0-.5.3-1.6.7-2.7.5-1.5.9-3 .9-4v-3c-.5-1.3-1.7-1.8-2.6-1.9-.7-.9-1.8-1-2.5-1-.5-.5-1.2-.7-2.2-.8v-3.3c0-.9-.7-1.6-1.6-1.6s-1.6.7-1.6 1.6v7.3c-.5-.5-1.2-1-1.9-1-.4 0-.7.1-1 .3-.9.8 0 2.2 1.1 4 1.2 1.8 2.6 4 2.6 6.1v.4zm-1.9-7c-.8-1.3-1.7-2.6-1.3-2.9.1-.1.2-.1.4-.1.7.1 1.6.9 2 1.4v.9c0 .2.2.4.4.4s.4-.2.4-.4v-9.4c0-.4.4-.8.8-.8s.8.4.8.8v6.9c0 .2.2.4.4.4s.4-.2.4-.4v-2.8c.9.1 1.4.3 1.6.5v2.3c0 .2.2.4.4.4s.4-.2.4-.4v-2c.5 0 1.2.2 1.6.7v2.1c0 .2.2.4.4.4s.4-.2.4-.4v-1.8c.5.1 1.3.4 1.6 1.3v2.8c0 .9-.5 2.4-.9 3.8-.3 1-.6 1.9-.7 2.5h-6.5c-.1-2.3-1.5-4.4-2.6-6.2zm0-7.3c-.7-.7-1.1-1.7-1.1-2.7 0-2.1 1.7-3.8 3.8-3.8 2.1 0 3.8 1.7 3.8 3.8 0 1-.4 2-1.1 2.7-.1.1-.2.1-.3.1s-.2 0-.3-.1c-.2-.2-.2-.4 0-.6.6-.6.9-1.3.9-2.1 0-1.6-1.3-3-3-3-1.6 0-3 1.3-3 3 0 .8.3 1.5.9 2.1.2.2.2.4 0 .6-.2.2-.4.2-.6 0z"/></symbol><symbol id="document" viewBox="0 0 18.2 18.9"><path d="M14.2 15.9H3.7a1.21 1.21 0 01-.1-.5v-.6h10.5v.6a.5.5 0 00.1.5"/><path d="M3.6 12.1h10.5v1H3.6z"/><path d="M3.6 9.5h10.5v1H3.6z"/><path d="M3.6 6.8h10.5v1H3.6z"/><path d="M3.6 3.9h5.7v1H3.6z"/><path d="M12.3 0H0a15.57 15.57 0 01.9 5.1V16c0 2.6 1.4 2.9 1.4 2.9h15.9a3.68 3.68 0 01-1.5-2.9V5.4a2.85 2.85 0 00-.9-1.9zm.4 1.7l2.7 2.5A5.85 5.85 0 0014 4a6 6 0 00-1.5 0zm3.9 16.5H2.8s-1-.3-1-2.6V5a13.23 13.23 0 00-.6-4h10.5l-.4 4s4.6-.4 4.6.4V16c0 1.8.7 2.2.7 2.2"/></symbol><symbol id="domain-search" viewBox="0 0 20.08 20.36"><path d="M20.08 19l-5.61-6a8.08 8.08 0 10-1.39 1.43l5.61 5.93zm-17-6.6a6.7 6.7 0 01.4-9.07 6.624 6.624 0 019.6 9.13l-.36.35a6.69 6.69 0 01-9.46-.25l-.18-.16"/><path d="M5.42 10.59H4.7l-.28-2.51-.28 2.51h-.72l-.51-4.34h.62l.23 3.26.44-3.26h.47l.41 3.26.24-3.26h.64z"/><path d="M8.63 10.59h-.72l-.27-2.51-.29 2.51h-.72l-.55-4.34h.66l.24 3.26.43-3.26h.47l.4 3.26.26-3.26h.64z"/><path d="M11.84 10.59h-.76l-.23-2.51-.28 2.51h-.73l-.51-4.34h.62l.23 3.26.43-3.26h.47l.4 3.26.26-3.26h.64z"/><path d="M12.72 10.59V9.52h.66v1.07z"/></symbol><symbol id="download" viewBox="0 0 14.3 18"><path d="M10.2 0l4.1 4.2V18H0V0zM.8 17.2h12.6V5H8.8V.8h-8z"/><path d="M7.5 12.2v-8h-.8v8L4.5 9.9l-.5.5 3.1 3.4 3.2-3.4-.6-.5-2.2 2.3z"/></symbol><symbol id="email" viewBox="0 0 19.92 14.8"><path d="M19.4 0H.6a.58.58 0 00-.6.6v13.6a.58.58 0 00.6.6h18.7a.58.58 0 00.6-.6V.6a.47.47 0 00-.5-.6m-.5 13.8H1V2.5L9.3 10a.73.73 0 00.6.2 1.42 1.42 0 00.6-.2l8.3-7.5v11.3zm0-12.5l-8.9 8h-.1L1 1.3V1h17.9z"/></symbol><symbol id="expand-audience-reach" viewBox="0 0 59.19 36.23"><path d="M9.69 36.06v-.36c.13-1.79.33-4.61.33-5.06 0-1.26 1.34-2.54 2-3a10.46 10.46 0 012-.93 13.64 13.64 0 001.28-.55 9.43 9.43 0 01.92-.4l.14-.06c.81-.32 1.65-.64 2.47-.94l.53-.2 1.1-.39a15.23 15.23 0 002.08-.85l.2-.4.22-.46A3.35 3.35 0 0123.98 21a2.86 2.86 0 01-.43-1 6.91 6.91 0 01-.21-1.24 3.66 3.66 0 00-.13-.77 1.67 1.67 0 01-.73-.52 3.29 3.29 0 01-.62-1.75 6.82 6.82 0 00-.14-.72 8.34 8.34 0 01-.17-3.26 2 2 0 01.18-.31 2.43 2.43 0 01-.08-.4c0-.36-.06-.72-.08-1.09a6.19 6.19 0 00-.07-1c-.06-.53-.11-.83-.16-1.09a4.61 4.61 0 01-.14-.62 4.3 4.3 0 01.42-2.32 1.32 1.32 0 01.13-.36c.38-1.07.91-2.56 2.63-2.75a3.24 3.24 0 011-.88l.18-.06a5.24 5.24 0 011.3-.56 5.31 5.31 0 011.58-.3h.28a11.49 11.49 0 016 1.72 4.58 4.58 0 011.26 1.21c.23.32.44.66.65 1s.25.42.38.61A4.9 4.9 0 0137.78 7a15.06 15.06 0 01-.19 4.28v.24a1.58 1.58 0 01.39 1.24c-.35 3.79-.82 4.76-1.57 5.22l-.22.13c-.11.72-.28 1.8-.4 2.23a2.75 2.75 0 01-.44.84 1.64 1.64 0 01.48.75 1.74 1.74 0 00.35.46 4.45 4.45 0 001.43 1.19c.81.32 1.63.63 2.45.93l1.15.43c1 .39 2.21.82 3.34 1.36l1.43.7a10.84 10.84 0 011.69.91A3 3 0 0148.98 30a1.91 1.91 0 00.07.28 32.38 32.38 0 01.4 5.49v.36l-2.17.07v-.36c-.07-2.33-.2-4.55-.28-4.85a3.51 3.51 0 01-.14-.52.93.93 0 00-.4-.74 8.85 8.85 0 00-1.38-.73l-1.49-.72c-1-.47-2.06-.87-3.1-1.26l-1.38-.52c-.75-.22-1.52-.56-2.31-.87a5.9 5.9 0 01-2.15-1.65 4.33 4.33 0 01-.74-.94 1.3 1.3 0 01-.63-.36 2.19 2.19 0 01-.43-1.78l.07-.51.44-.27a.94.94 0 00.34-.39c.09-.32.31-1.77.43-2.65l.16-1.13.91.18a11 11 0 00.56-3l-.23-.15-.09-.45a4 4 0 01.06-1.6 13 13 0 00.16-3.71 2.81 2.81 0 00-.37-1.44c-.14-.21-.27-.43-.41-.65s-.38-.63-.56-.85a2.55 2.55 0 00-.65-.63 9.31 9.31 0 00-4.89-1.4h-.25a3.23 3.23 0 00-.92.19 3.28 3.28 0 00-.85.35l-.17.1a1.12 1.12 0 00-.37.29 1.82 1.82 0 01-1.44.82c-.35 0-.5.16-.88 1.25l-.21.56A2.37 2.37 0 0023.43 7a1.1 1.1 0 00.07.48c0 .32.09.64.09 1.19 0 .38.06.76.09 1.15a8 8 0 00.07 1v.17a3.23 3.23 0 01.12.46 1.27 1.27 0 01-.33 1.24 10 10 0 00.22 1.72 9.39 9.39 0 01.19.95c.05.32.07.43.1.56l.25.07a1.23 1.23 0 01.88 1.18v.13a5.59 5.59 0 01.24 1.26 4.87 4.87 0 00.15.89 1 1 0 00.09.27 1.64 1.64 0 01.9 1.14 1.86 1.86 0 01-.27 1.54l-.31.37-.55.06h-.24a3.38 3.38 0 00-.22.45 3.08 3.08 0 01-.17.36l-.1.21a2.75 2.75 0 01-1.16 1.36 17.14 17.14 0 01-2.37.94l-1 .37-.54.2c-.81.3-1.63.61-2.43.93l-.15.06a7.36 7.36 0 00-.7.3 15.09 15.09 0 01-1.47.64 9.81 9.81 0 00-1.55.71 3.39 3.39 0 00-1.12 1.28c0 .71-.33 5.15-.33 5.2v.36z"/><path d="M59.19 22.36a20.24 20.24 0 00-.21-3.44 1.2 1.2 0 010-.17 1.9 1.9 0 00-.83-1.3 6.79 6.79 0 00-1.06-.57l-.89-.42c-.71-.34-1.44-.61-2.09-.85l-.72-.27-1.53-.58a2.78 2.78 0 01-.91-.76 1.09 1.09 0 01-.22-.29 1 1 0 00-.3-.47 1.72 1.72 0 00.2-.53c.08-.27.18-.94.25-1.39l.17-.08c.47-.29.76-.9 1-3.27a1 1 0 00-.23-.8V7a9.42 9.42 0 00.12-2.65 3.07 3.07 0 00-.45-1.52l-.24-.38a5.84 5.84 0 00-.41-.64 2.86 2.86 0 00-.86-.73A7.18 7.18 0 0046.23 0h-.17a3.32 3.32 0 00-1 .19 3.28 3.28 0 00-.81.35l-.11.07a2 2 0 00-.65.55 2.09 2.09 0 00-1.65 1.72l-.08.23a2.69 2.69 0 00-.26 1.45.87.87 0 000 .36c0 .12 0 .32.13.68s0 .39 0 .63v.68a1.52 1.52 0 000 .25 1.28 1.28 0 00-.11.2 5.22 5.22 0 00.11 2 4.27 4.27 0 01.09.45 2.06 2.06 0 00.39 1.09 1 1 0 00.46.32 2.29 2.29 0 01.08.48 4.33 4.33 0 00.13.78 1.79 1.79 0 00.27.61 2.1 2.1 0 00-.61.9l-.14.29a.83.83 0 01-.12.25 9.53 9.53 0 01-1.2.47l-.69.24-.33.13-1.55.63h-.09l-.23.1a4.57 4.57 0 01-.79 1.82h.29a9.43 9.43 0 00.92-.4l.44-.19h.09l1.52-.58.34-.13.65-.23a10.71 10.71 0 001.43-.57 1.72 1.72 0 00.73-.88l.06-.13.11-.23a2.11 2.11 0 01.1-.34h.56l.24-.24a1.17 1.17 0 00.2-1 1 1 0 00-.56-.71.61.61 0 01-.06-.17 3 3 0 01-.09-.56 3.49 3.49 0 00-.15-.79v-.07a.77.77 0 00-.55-.74h-.15a1.52 1.52 0 00-.06-.35 6 6 0 00-.15-.61 6.26 6.26 0 01-.14-1.08.8.8 0 00.24-.8 2 2 0 00-.08-.29v-.69a3.69 3.69 0 000-.72c0-.24-.07-.55-.11-.75a.72.72 0 010-.3 1.49 1.49 0 01.16-.75 1.42 1.42 0 01.13-.35c.24-.68.33-.77.55-.78a1.14 1.14 0 00.63-.49.7.7 0 01.23-.18l.16-.12a2.06 2.06 0 01.53-.22 2 2 0 01.58-.12h.15a5.82 5.82 0 013.08.88 1.59 1.59 0 01.41.39 5.06 5.06 0 01.35.56l.25.41a1.76 1.76 0 01.23.87 8.16 8.16 0 01-.1 2.32 2.49 2.49 0 000 1l.06.28.09.08a6.9 6.9 0 01-.35 1.9l-.55-.11-.1.71c-.08.55-.21 1.46-.27 1.66a.59.59 0 01-.21.24l-.27.17V13a1.37 1.37 0 00.27 1.12.81.81 0 00.39.22 2.71 2.71 0 00.46.66 3.69 3.69 0 001.34 1l1.46.56.83.36c.65.24 1.32.5 1.94.79l.92.44a5.53 5.53 0 01.86.46.58.58 0 01.25.46 2.2 2.2 0 00.09.33c0 .19.13 1.57.18 3v.23h1.36z"/><path d="M21.19 16.24c-.52-.22-1-.42-1.5-.6l-.71-.27-1.53-.58a2.78 2.78 0 01-.91-.76 1.09 1.09 0 01-.22-.29 1 1 0 00-.3-.47 1.72 1.72 0 00.28-.53c.08-.27.18-.94.25-1.39l.14-.11c.47-.29.76-.9 1-3.27a1 1 0 00-.23-.8V7a9.42 9.42 0 00.14-2.66 3.07 3.07 0 00-.45-1.52l-.24-.38c-.15-.22-.31-.43-.43-.63a2.86 2.86 0 00-.79-.75A7.18 7.18 0 0011.9 0h-.17a3.32 3.32 0 00-1 .19 3.28 3.28 0 00-.81.35l-.11.07a2 2 0 00-.65.55 2.09 2.09 0 00-1.65 1.72l-.08.23a2.69 2.69 0 00-.26 1.45.87.87 0 00.05.36 3.7 3.7 0 01.1.68 3.28 3.28 0 010 .63v.68a1.52 1.52 0 00.05.25 1.28 1.28 0 00-.11.2 5.22 5.22 0 00.11 2 4.27 4.27 0 01.09.45 2.06 2.06 0 00.39 1.09 1 1 0 00.46.32 2.29 2.29 0 01.08.48 4.33 4.33 0 00.13.78 1.79 1.79 0 00.27.61 2.1 2.1 0 00-.61.9l-.14.29a.83.83 0 01-.12.25 9.53 9.53 0 01-1.3.51l-.64.24-.33.13-1.6.59h-.07a5.88 5.88 0 00-.57.25 8.52 8.52 0 01-.8.34 6.55 6.55 0 00-1.1.65 2.87 2.87 0 00-1.28 1.9c0 .28-.12 2-.21 3.16v.23l1.35.1v-.22s.24-2.79.24-3.23a2.12 2.12 0 01.7-.8 6.14 6.14 0 011-.44 9.43 9.43 0 00.92-.4l.38-.19h.07l1.52-.58.34-.13.65-.23a10.71 10.71 0 001.48-.59 1.72 1.72 0 00.73-.88l.06-.13.13-.26a2.11 2.11 0 01.11-.31h.51l.19-.23a1.17 1.17 0 00.17-1 1 1 0 00-.59-.71.61.61 0 01-.06-.17 3 3 0 01-.09-.56 3.49 3.49 0 00-.15-.79v-.08a.77.77 0 00-.52-.7h-.18a1.52 1.52 0 000-.39A6 6 0 008.83 9a6.26 6.26 0 01-.14-1.08.8.8 0 00.24-.8 2 2 0 00-.08-.29v-.69a3.69 3.69 0 00-.05-.72 4.84 4.84 0 01-.21-.73v-.3a1.49 1.49 0 01.16-.75 1.42 1.42 0 01.13-.35c.24-.68.33-.77.55-.78a1.14 1.14 0 00.9-.55.7.7 0 01.23-.18l.14-.08a2.06 2.06 0 01.53-.22 2 2 0 01.58-.12h.17a5.82 5.82 0 013 .88 1.59 1.59 0 01.41.39 5.06 5.06 0 01.35.56l.26.4a1.76 1.76 0 01.23.87 8.16 8.16 0 01-.1 2.32 2.49 2.49 0 000 1l.06.28.14.09a6.9 6.9 0 01-.35 1.85l-.57-.11-.1.71c-.08.55-.21 1.46-.27 1.66a.59.59 0 01-.21.24l-.27.17V13a1.37 1.37 0 00.27 1.12.81.81 0 00.39.22 2.71 2.71 0 00.46.59 3.69 3.69 0 001.3 1.07l1.46.56.86.32c.65.24 1.32.5 1.94.79l.88.41-.14-.16a3.3 3.3 0 01-.79-1.68z"/></symbol><symbol id="facebook" viewBox="0 0 10.5 20"><path d="M6.7 20v-9.1h3.1l.5-3.6H6.8V5c0-1 .3-1.7 1.8-1.7h1.9V.1C10.2.1 9.1 0 7.8 0a4.33 4.33 0 00-4.6 4.7v2.6H0v3.6h3.1V20z"/></symbol><symbol id="forum" viewBox="0 0 24 24"><path d="M7.5 14.6l-3.1 1.6.2-1.6H2.3c-.1 0-.1-.1-.1-.1V4.1c0-.1.1-.1.1-.1h11.9c.1 0 .1.1.1.1V6h.7V4.1c0-.5-.4-.8-.8-.8H2.3c-.4 0-.8.4-.8.8v10.3c0 .5.4.8.8.8h1.6l-.3 2.1 4.1-2.1h.7v-.7l-.9.1z"/><path d="M14.3 14.5c0 .1-.1.1 0 0l-4 .1v.7h3.9c.5 0 .8-.4.8-.8V8h-.7v6.5z"/><path d="M9.8 6.7c-.5 0-.8.4-.8.8v10.3c0 .5.4.8.8.8h6.5l4.1 2.1-.3-2.1h1.6c.5 0 .8-.4.8-.8V7.5c0-.5-.4-.8-.8-.8H9.8m-.1.8c0-.1.1-.1 0 0l12-.1c.1 0 .1.1.1.1v10.3c0 .1-.1.1-.1.1h-2.5l.2 1.6-3.1-1.6H9.7c-.1 0-.1-.1-.1-.1l.1-10.3z"/></symbol><symbol id="gears" viewBox="0 0 18.6 20"><path d="M11.9 10.2a.61.61 0 01-.1-.6l.4-1a.55.55 0 01.5-.3h1.2a.43.43 0 00.4-.4V6.3c0-.2-.2-.3-.4-.3h-1.2a.43.43 0 01-.4-.4l-.4-1A.47.47 0 0112 4l.9-.9a.45.45 0 000-.5l-1.2-1.2a.45.45 0 00-.5 0l-.9 1a.61.61 0 01-.6.1l-1-.4a.55.55 0 01-.3-.5V.4A.43.43 0 008 0H6.3c-.2 0-.3.2-.3.4v1.2a.43.43 0 01-.4.4l-1 .4a.45.45 0 01-.5 0l-.9-.9a.45.45 0 00-.5 0L1.5 2.7a.45.45 0 000 .5l.9.8a.61.61 0 01.1.6l-.4 1a.66.66 0 01-.5.4H.4c-.2 0-.4.1-.4.3V8a.43.43 0 00.4.4h1.2a.85.85 0 01.5.3l.4 1a.47.47 0 01-.1.6l-.9.9a.45.45 0 000 .5l1.2 1.2a.45.45 0 00.5 0l.9-.9a.61.61 0 01.6-.1l1 .4a.55.55 0 01.3.5V14a.43.43 0 00.4.4h1.7a.43.43 0 00.4-.4v-1.2a.85.85 0 01.3-.5l1-.4a.47.47 0 01.6.1l.9.9a.45.45 0 00.5 0l1.2-1.2a.45.45 0 000-.5zm-4.7 0a3.12 3.12 0 01-3.1-3.1A3.05 3.05 0 017.2 4a3.1 3.1 0 110 6.2"/><path d="M18.2 17a.43.43 0 00.4-.4v-.5a.43.43 0 00-.4-.4H18a.55.55 0 01-.5-.3 1.1 1.1 0 010-.8l.2-.2a.45.45 0 000-.5l-.3-.3a.45.45 0 00-.5 0l-.2.2c-.1.2-.4.3-.5.2s-.6-.4-.6-.6v-.2a.43.43 0 00-.4-.4h-.5a.43.43 0 00-.4.4v.2a.55.55 0 01-.3.5 1.1 1.1 0 01-.8 0l-.2-.2a.45.45 0 00-.5 0l-.2.4a.45.45 0 000 .5l.2.2c.1.1.2.4.1.5s-.4.6-.6.6h-.2a.43.43 0 00-.4.4v.5a.43.43 0 00.4.4h.2a.55.55 0 01.5.3 1.1 1.1 0 010 .8h-.2a.45.45 0 000 .5l.3.3a.45.45 0 00.5 0l.2-.2c.1-.1.4-.2.5-.1s.6.4.6.6v.2a.43.43 0 00.4.4h.5a.43.43 0 00.4-.4v-.2c0-.2.1-.4.3-.4a1.1 1.1 0 01.8 0l.2.2a.45.45 0 00.5 0l.3-.3a.45.45 0 000-.5l-.2-.2c-.1-.1-.2-.4-.1-.5s.4-.6.6-.6zm-3.2.6a1.2 1.2 0 111.2-1.2 1.16 1.16 0 01-1.2 1.2"/></symbol><symbol id="globe-star" viewBox="0 0 24 20.72"><path d="M16.62 16.69a19.06 19.06 0 00-3.54-1.06c.15-.43.28-.89.4-1.36l-.79.42c-.08.28-.16.56-.25.83l-1.06-.16-.57.3.06-.35-.87-.04v-3.91h1.52l.11-.66H10V7.83l-.66-.64v3.5H6.22A14.2 14.2 0 017 6.55a19 19 0 001.94.21l-.77-.74-.94-.12c.08-.2.16-.38.24-.57a14.83 14.83 0 011.9-3.21v2.9l.66-.1V2.17a17.8 17.8 0 011.57 2.52l.64-.09a17.87 17.87 0 00-1.55-2.47 8.87 8.87 0 013.42 1.1l.33-.67a9.7 9.7 0 104.44 11.6l-.67-.35a8.93 8.93 0 01-1.59 2.88zm-8-14.55a15.15 15.15 0 00-2.04 3.65 19.47 19.47 0 01-3.36-.94 8.92 8.92 0 015.42-2.71zM2.77 5.36a19 19 0 003.57 1.07 14.16 14.16 0 00-.8 4.26H.76a8.91 8.91 0 012.01-5.33zm0 11.26a8.91 8.91 0 01-2.01-5.26h4.77a13.49 13.49 0 00.76 4.18 16.41 16.41 0 00-3.57 1.08zm.43.5a16.42 16.42 0 013.39-.95A17 17 0 008.7 19.9a8.93 8.93 0 01-5.55-2.78zm6.21 2.82a16.92 16.92 0 01-2.18-3.87 17.33 17.33 0 012.18-.14zm0-4.69a17.24 17.24 0 00-2.42.17 13.47 13.47 0 01-.77-4.06h3.14zm.59 4.71v-4a19.09 19.09 0 012.17.2 15.25 15.25 0 01-2.11 3.81zm.79-.06a15.3 15.3 0 002-3.63 19.45 19.45 0 013.33.93 8.92 8.92 0 01-5.3 2.7z"/><path d="M24 5.62l-5.36-.77L16.24 0l-1.38 2.81-.34.68-.67 1.37-1.38.2-.64.1-1.8.26-.66.1-.88.13.44.43 1.1 1.06 2.35 2.28-.22 1.27-.11.66-.58 3.41 1.37-.73.77-.4 2.65-1.4 2.08 1.09.68.36 2.03 1.06-.92-5.33L24 5.62z"/></symbol><symbol id="globe" viewBox="0 0 20 20"><path d="M10 0a10 10 0 1010 10A10 10 0 0010 0m.3 5.7a22.86 22.86 0 002.5-.2 13 13 0 01.8 4.2h-3.2v-4zm0-.8V.8a14.15 14.15 0 012.2 3.9 7.84 7.84 0 01-2.2.2m-.6 0a15 15 0 01-2.2-.2A12.17 12.17 0 019.7.8zm0 .8v4H6.4a13.07 13.07 0 01.8-4.2 22.86 22.86 0 012.5.2m-3.9 4h-5a8.9 8.9 0 012.1-5.5 18.87 18.87 0 003.7 1.1 11.52 11.52 0 00-.8 4.4m-.1.6a11.6 11.6 0 00.8 4.3 19.2 19.2 0 00-3.7 1.1 9.4 9.4 0 01-2-5.4zm.7 0h3.3v4a21.05 21.05 0 00-2.5.2 12.49 12.49 0 01-.8-4.2m3.3 4.8v4.2a13.28 13.28 0 01-2.2-4 7.84 7.84 0 012.2-.2m.6 4.1V15a15 15 0 012.2.2 10.19 10.19 0 01-2.2 4m0-4.8v-4h3.2a10.84 10.84 0 01-.8 4.2 15.42 15.42 0 00-2.4-.2m4-4.1h4.9a8.9 8.9 0 01-2.1 5.5 18.87 18.87 0 00-3.7-1.1 13.69 13.69 0 00.9-4.4m-.1-.6a11.6 11.6 0 00-.8-4.3 23.41 23.41 0 003.8-1.2 9.4 9.4 0 012 5.4l-5 .1zm2.6-5.9a17 17 0 01-3.5 1A15.92 15.92 0 0011 .9a9.5 9.5 0 015.8 2.9M8.9.8a17.63 17.63 0 00-2.2 3.8c-1.4-.3-2.6-.7-3.4-.9A9.54 9.54 0 018.9.8M3.2 16.2a15.36 15.36 0 013.5-1A16.81 16.81 0 008.9 19a8.43 8.43 0 01-5.7-2.8m8 3a15.68 15.68 0 002.1-3.8 22.58 22.58 0 013.4.9 9.86 9.86 0 01-5.5 2.9"/></symbol><symbol id="graph" viewBox="0 0 21.03 14.34"><path d="M0 13.31l8.23-8.24 3.46 3.35 6.88-6.88-2.91.09V.23L21.03 0l-.22 5.48H19.4l.17-3-2.2 2.22v9.2h-1.3V6L13.4 8.65v5.25H12v-3.84l-.31.31-2.24-2.24v5.77H8.04V7.21L5.38 9.87v4.03h-1.4v-2.61l-2.95 3.05L0 13.31z"/></symbol><symbol id="gtld_services" viewBox="0 0 45 42.44"><path fill="#fff" d="M33.145 39.024l8.443-8.443 3.415 3.416-8.443 8.443z"/><path d="M39.91 30.51l-3.1-3.08a2.82 2.82 0 00.28-1.21 2.89 2.89 0 00-.76-2l-.12-.11-3.9-3.9-.19-.22-.12-.11a1 1 0 00-.83-.29H16.26a1.85 1.85 0 00-1.85 1.85v.55a1.85 1.85 0 001.85 1.85h9.09v1.25H14.63l-5.55-5.55-5.55-5.55a1.84 1.84 0 00-2.6 0l-.38.38a1.84 1.84 0 000 2.6l4.9 5.75 7.8 9.14a1.94 1.94 0 00.62.4 1.75 1.75 0 00.75.17h14.06l4.65 4.65z" fill="#fff"/><path d="M19.87 7.17a.61.61 0 01-.45-.43l-.28-1.08a.57.57 0 01.24-.55l1-.73a.43.43 0 00.09-.57l-1-1.33c-.12-.17-.34-.13-.51 0l-1 .73a.43.43 0 01-.57-.09l-.94-.59a.46.46 0 01-.28-.54l.2-1.3a.48.48 0 00-.3-.41l-1.73-.29a.48.48 0 00-.41.3l-.12 1.37a.65.65 0 01-.44.44l-1.07.29a.58.58 0 01-.56-.23l-.72-1a.45.45 0 00-.58-.09L9 2.07a.35.35 0 000 .49l.73 1a.45.45 0 01-.09.58l-.59.93a.45.45 0 01-.41.31l-1.3-.2a.46.46 0 00-.41.3l-.24 1.74a.51.51 0 00.3.42l1.24.12a.62.62 0 01.44.43l.27 1.15a.69.69 0 01-.17.63l-1 .73a.36.36 0 00-.15.49l1 1.41a.43.43 0 00.57.09l1-.72a.89.89 0 01.6-.06l.94.59a.5.5 0 01.28.56l-.2 1.28a.48.48 0 00.3.42l1.72.27a.46.46 0 00.42-.31l.2-1.29a.63.63 0 01.44-.45l1.11-.27a.54.54 0 01.55.23l.73 1a.46.46 0 00.58.09l1.41-1a.46.46 0 00.09-.58l-.73-1a.89.89 0 01-.06-.6l.59-.94a.48.48 0 01.56-.28l1.29.2a.48.48 0 00.42-.3l.27-1.73a.48.48 0 00-.3-.41zM16 9.99a3.19 3.19 0 01-4.45-.68 3.14 3.14 0 01.58-4.32h.07a3.18 3.18 0 113.8 5" fill="#fff"/><path d="M29.22 8.99a.43.43 0 00.09-.57L29 7.99a.45.45 0 00-.58-.09l-.16.12a.59.59 0 01-.6.06 1.11 1.11 0 01-.49-.67l.05-.29a.48.48 0 00-.3-.41l-.44-.07a.45.45 0 00-.41.31v.28c0 .23-.15.49-.29.47s-.74 0-.86-.13l-.07-.17a.46.46 0 00-.58-.09l-.41.3a.45.45 0 00-.09.58l.08.13a.57.57 0 010 .59 1.12 1.12 0 01-.66.49h-.29a.45.45 0 00-.41.31l.07.45a.48.48 0 00.31.42h.28c.15 0 .41.21.39.35s0 .75-.13.87l-.17.12a.43.43 0 00-.09.57l.3.42a.46.46 0 00.55.08l.16-.12a.57.57 0 01.6-.06 1.11 1.11 0 01.49.67l-.17.12a.48.48 0 00.3.41l.43.07a.48.48 0 00.42-.3v-.29c0-.14.22-.41.36-.39s.74 0 .86.14l.12.16a.45.45 0 00.58.09l.41-.3a.43.43 0 00.09-.57l-.12-.17a.36.36 0 010-.51 1.11 1.11 0 01.66-.48h.29a.46.46 0 00.41-.3l.07-.43a.48.48 0 00-.3-.41h-.2c-.14 0-.41-.21-.39-.35s0-.75.14-.87zm-2.29 2.44a1.19 1.19 0 01-1.68-.21l-.05-.06a1.24 1.24 0 111.73.27" fill="#fff"/></symbol><symbol id="hand" viewBox="0 0 22.01 14.18"><path d="M16.213 12.52l4.13-4.129 1.668 1.67-4.13 4.129z"/><path d="M19.52 8.35l-1.51-1.5a1.39 1.39 0 00-.24-1.54l-.06-.06-1.9-1.92-.09-.09-.07-.07a.5.5 0 00-.41-.16H7.96a.9.9 0 00-.9.9v.27a.9.9 0 00.9.9h4.45v.63H7.16l-2.71-2.7L1.74.27A.9.9 0 00.47.26l-.2.2a.9.9 0 000 1.27l2.4 2.81 3.81 4.47a.91.91 0 00.3.2.89.89 0 00.37.08h6.86l2.27 2.27z"/></symbol><symbol id="headset" viewBox="0 0 17.02 18.7"><path d="M12.2 17.3a1.15 1.15 0 00-1-.8H8.9a1.1 1.1 0 000 2.2h2.3a1.09 1.09 0 001.1-.9 4.38 4.38 0 003.3-4.2h-.5a3.84 3.84 0 01-2.9 3.7"/><path d="M16.5 8h-1.7V6.3a6.21 6.21 0 00-1.4-4.5A6.81 6.81 0 008.5 0a6.16 6.16 0 00-4.7 1.8 6.44 6.44 0 00-1.5 4.4v1.7H.6a.65.65 0 00-.6.6V13a.65.65 0 00.6.6h2.3a.65.65 0 00.6-.6V6.1a5.19 5.19 0 011.1-3.6 5.14 5.14 0 013.9-1.4 5.14 5.14 0 013.9 1.4 5.41 5.41 0 011.1 3.7V13a.65.65 0 00.6.6h2.3a.65.65 0 00.6-.6V8.5c.1-.3-.2-.5-.5-.5"/></symbol><symbol id="how-to-get-online" viewBox="0 0 58.6 39.4"><path d="M56.6 0H1.8A1.79 1.79 0 000 1.8v37.6h58.6V1.8a2.05 2.05 0 00-2-1.8m.5 38H1.3V8h55.8zM1.3 1.4h55.8v5.2H1.3z"/><path d="M4.4 2.5a1.4 1.4 0 101.4 1.4 1.59 1.59 0 00-1.4-1.4"/><path d="M8.9 2.5a1.4 1.4 0 101.4 1.4 1.43 1.43 0 00-1.4-1.4"/><path d="M13.5 2.5a1.4 1.4 0 101.4 1.4 1.43 1.43 0 00-1.4-1.4"/><path d="M14.8 26.1l-.6-2.9-.9-3.7h-.1l-1.5 6.6H9.2l-2.3-8.4h2.3l1 3.7c.2.7.3 1.6.5 2.7a8.21 8.21 0 01.3-1.8l.1-.6 1-4h2.5l1 4a4.33 4.33 0 01.1.5c0 .2.1.4.1.7s.1.5.1.7.1.4.1.6a10.4 10.4 0 01.2-1.5c.1-.6.2-1.1.2-1.3l1-3.7h2.2l-2.4 8.4z"/><path d="M28.9 26.1l-.7-2.9-.9-3.7h-.1l-1.5 6.6h-2.5L21 17.7h2.2l1 3.7c.2.7.3 1.6.5 2.7a8.21 8.21 0 01.3-1.8l.1-.6 1-4h2.5l1 4a4.33 4.33 0 01.1.5c0 .2.1.4.1.7s.1.5.1.7.1.4.1.6a10.4 10.4 0 01.2-1.5c.1-.6.2-1.1.2-1.3l1-3.7h2.2l-2.4 8.4z"/><path d="M42.9 26.1l-.6-2.9-.9-3.7h-.1l-1.5 6.6h-2.5L35 17.7h2.3l1 3.7c.2.7.3 1.6.5 2.7a8.21 8.21 0 01.3-1.8l.1-.6 1-4h2.5l1 4a1.09 1.09 0 00.1.5c0 .2.1.4.1.7s.1.5.1.7.1.4.1.6a10.4 10.4 0 01.2-1.5c.1-.6.2-1.1.2-1.3l1-3.7h2.2l-2.4 8.4z"/><path d="M48.9 25a1.69 1.69 0 01.3-1 1.49 1.49 0 011-.3 1.69 1.69 0 011 .3 1.5 1.5 0 010 1.8 1.33 1.33 0 01-1 .3 1.69 1.69 0 01-1-.3c-.2 0-.3-.3-.3-.8"/></symbol><symbol id="icon_ump_chat" viewBox="0 0 30 30.34"><path d="M12.24 20.63l-4.7 4v-4H2.66V5.17H0v18.12h4.87v7.05l8.35-7.05h9.25l-2.71-2.66zM6.29 0v16.42h14.32l6.52 6.57v-6.57H30V0z" fill="currentColor"/></symbol><symbol id="icon_ump_earth" viewBox="0 0 30 30"><path fill="currentColor" d="M9.33 15.94l-1.87-.11-.44 2.37 1.13 1.11.04 1.59.19 2.7.96.85.38-1.83 1.31-2.67-.11-2.99-1.59-1.02z"/><path d="M15 0a15 15 0 1015 15A15 15 0 0015 0zm0 27.07A12.09 12.09 0 012.93 15a11.78 11.78 0 01.62-3.77c.06.18.87 2.62 1 2.72s2.78 1.81 2.78 1.81L6.69 14l1.11-.92 2.2-1.66V7.51l-2.46-2a12 12 0 0116.66 1.7l-.28.35-2.51.44-1.76.77-1.09.77-.45.91.81-.12-.11.48-1.61.53-.46.56-1 .64.32.58.66-.22 1.08-.32 1 .71.87-.15.76 1.21.63-.66-.18 1.44-1.77.13-1.83-.88-1.48.62-1 1.88.86 1.6 2.35.15.26 1 .35 1.08s-.22.93-.22 1 .86 2 .86 2l1.45-.8 1.16-2.07v-1.3l1-1.47-.49-.71A14.42 14.42 0 0024.1 17s-.51-1-.85-1.6l1.9.59 1.56 1.87A12.07 12.07 0 0115 27.07z" fill="currentColor"/></symbol><symbol id="icon_ump_email-open" viewBox="0 0 30 27.12"><path d="M25.52 5.2V0h-21v5.2L0 9.67v17.45h30V9.67zm-2.41-2.78v10.14l-3.37 2h-9.48l-3.37-2V2.42zm4.47 22.28H2.42V12.01l6.67 4-4.62 6 .76.62 5.63-6.21h8.28l5.63 6.21.76-.62-4.62-6 6.67-4z" fill="currentColor"/></symbol><symbol id="icon_x" viewBox="0 0 14.2 14.2"><path d="M7.1 9.1L2 14.2l-2-2 5.1-5.1L0 2l2-2 5.1 5.1L12.2 0l2 2-5.1 5.1 5.1 5.1-2 2-5.1-5.1z"/></symbol><symbol id="laptop-gears" viewBox="0 0 57.9 32.4"><path d="M31.1 15.1a.6.6 0 01-.1-.4l.3-.8a.45.45 0 01.4-.3h.9a.27.27 0 00.3-.3V12a.27.27 0 00-.3-.3h-.9c-.2 0-.3-.1-.4-.3l-.3-.7c-.1-.1 0-.3.1-.4l.7-.7a.3.3 0 000-.4l-1-1a.3.3 0 00-.4 0l-.7.7a.6.6 0 01-.4.1l-.8-.3a.45.45 0 01-.3-.4v-.9a.27.27 0 00-.3-.3h-1.3a.27.27 0 00-.3.3v.9c0 .2-.1.3-.3.4l-.8.3c-.1.1-.3 0-.4-.1l-.6-.7a.3.3 0 00-.4 0l-.9.9a.3.3 0 000 .4l.7.7a.6.6 0 01.1.4l-.3.8a.45.45 0 01-.4.3h-1a.27.27 0 00-.3.3v1.3a.27.27 0 00.3.3h1c.2 0 .3.1.4.3l.3.8c.1.1 0 .3-.1.4l-.7.7a.3.3 0 000 .4l.9.9a.3.3 0 00.4 0l.7-.7a.6.6 0 01.4-.1l.8.3a.45.45 0 01.3.4v.9a.27.27 0 00.3.3H28a.27.27 0 00.3-.3V17c0-.2.1-.3.3-.4l.8-.3c.1-.1.3 0 .4.1l.7.7a.3.3 0 00.4 0l.9-.9a.3.3 0 000-.4zm-3.8 0a2.43 2.43 0 01-2.4-2.4 2.52 2.52 0 012.4-2.5 2.45 2.45 0 010 4.9"/><path d="M36 20.4a.27.27 0 00.3-.3v-.4a.27.27 0 00-.3-.3h-.2a.52.52 0 01-.4-.2c0-.1-.1-.5 0-.6l.1-.1a.3.3 0 000-.4l-.3-.3a.3.3 0 00-.4 0l-.1.1a.6.6 0 01-.4.1.45.45 0 01-.3-.4v-.2a.27.27 0 00-.3-.3h-.4a.27.27 0 00-.3.3v.2a.52.52 0 01-.2.4c-.1 0-.5.1-.6 0l-.2-.2a.3.3 0 00-.4 0l-.3.3a.3.3 0 000 .4l.1.1a.6.6 0 01.1.4c-.1.1-.3.4-.4.4H31a.27.27 0 00-.3.3v.4a.27.27 0 00.3.3h.2a.52.52 0 01.4.2c0 .1.1.5 0 .6l-.1.1a.3.3 0 000 .4l.3.3a.3.3 0 00.4 0l.1-.1a.6.6 0 01.4-.1c.1.1.4.3.4.4v.2a.27.27 0 00.3.3h.4a.27.27 0 00.3-.3v-.2a.52.52 0 01.2-.4c.1 0 .5-.1.6 0l.1.1a.3.3 0 00.4 0l.3-.3a.3.3 0 000-.4l-.1-.1a.6.6 0 01-.1-.4c.1-.1.3-.4.4-.4zm-2.5.5a.9.9 0 11.9-.9.9.9 0 01-.9.9"/><path d="M50.5 29.8V4c0-2.2-1.3-4-2.9-4H10.3C8.7 0 7.4 1.8 7.4 4v25.8H0a6 6 0 004.8 2.6h48.3a6 6 0 004.8-2.6zM29 .8a.4.4 0 11-.4.4.37.37 0 01.4-.4zM28 1a.2.2 0 11-.2.2c0-.2.1-.2.2-.2zm4 29.4h-6q-.3 0-.6-.6h7.2q-.3.6-.6.6zM48.7 28a.27.27 0 01-.3.3H9.6a.27.27 0 01-.3-.3V2.6a.27.27 0 01.3-.3h38.8a.27.27 0 01.3.3z"/></symbol><symbol id="laptop-www" viewBox="0 0 24 13.4"><path d="M20.9 12.3V1.6c0-.9-.5-1.6-1.2-1.6H4.3c-.7 0-1.2.8-1.2 1.6v10.7H0c.4.7 1.2 1.1 2 1.1h20c.8 0 1.6-.4 2-1.1h-3.1zM12 .2c.1 0 .1 0 .1.1s0 .1-.1.1-.1 0-.1-.1 0-.1.1-.1zm-.4.1c.1.1 0 .1 0 0 0 .1-.1.1 0 0zm1.6 12.2h-2.5c-.1 0-.2-.1-.2-.2h2.9c0 .1-.1.2-.2.2zm7-.9c0 .1 0 .1-.1.1H3.9c-.1 0-.1 0-.1-.1V1c0-.1 0-.1.1-.1h16c.1 0 .1 0 .1.1v10.6h.2z"/><path d="M8.5 8.1c0 .1 0 .2-.1.3 0 .1 0 .3-.1.4v-.7l-.2-1.3h-.9l-.3 1.3v.2c-.1.1-.1.3-.1.4-.1-.3-.1-.6-.2-.8l-.3-1.2h-.7l.7 2.6h.8l.4-2 .3 1.1.2 1h.8l.8-2.6h-.7l-.4 1.3z"/><path d="M12.9 8.1c0 .1 0 .2-.1.3 0 .1 0 .3-.1.4v-.7l-.3-1.2h-.8l-.3 1.2v.2c-.1.2-.1.3-.1.5-.1-.3-.1-.6-.2-.9l-.3-1.1h-.8l.7 2.6h.8l.4-2 .3 1.1.2.9h.7l.8-2.6h-.7l-.2 1.3z"/><path d="M17.1 8.1c0 .1 0 .2-.1.3 0 .1 0 .3-.1.4v-.7l-.3-1.2h-.8l-.3 1.2v.2c-.1.2-.1.3-.1.5-.1-.3-.1-.6-.2-.9L15 6.7h-.8l.7 2.6h.8l.4-2 .3 1.1.2.9h.8l.8-2.6h-.7l-.4 1.4z"/><path d="M18.3 8.7c-.2 0-.3 0-.3.1v.3c0 .1 0 .3.1.3.1.1.2.1.3.1.1 0 .3 0 .3-.1.1-.1.1-.2.1-.3 0-.1 0-.3-.1-.3s-.2-.1-.4-.1"/></symbol><symbol id="lightbulb" viewBox="0 0 12.33 22.74"><path d="M7.63 11.35a.48.48 0 00-.52-.35.55.55 0 00-.45.19.63.63 0 00-.89 0 .55.55 0 00-.45-.19.49.49 0 00-.52.32.31.31 0 00.09.6.55.55 0 00.45-.19.63.63 0 00.89 0 .63.63 0 00.89 0 .55.55 0 00.45.19.31.31 0 00.06-.58z"/><path d="M10.65 5.54a6.11 6.11 0 00-4.43-1.86A6.23 6.23 0 000 9.9a7.17 7.17 0 001.51 4l.19.3A5.74 5.74 0 013 17.35a.79.79 0 00.5.65.57.57 0 00-.27.46.82.82 0 00.23.58.57.57 0 00-.23.43.82.82 0 00.3.64.57.57 0 00-.3.47.81.81 0 00.44.73h.23l.95 1a1.15 1.15 0 00.81.39h.89a.88.88 0 00.61-.28l.2-.11.89-.89a2 2 0 00.32-.5.67.67 0 00.35-.38.56.56 0 000-.4.44.44 0 00-.2-.3.63.63 0 00.22-.3.56.56 0 000-.4.44.44 0 00-.2-.3.63.63 0 00.22-.3.56.56 0 000-.4.29.29 0 000-.09.73.73 0 00.35-.74 5.74 5.74 0 011.31-3.13l.19-.3a7.16 7.16 0 001.51-4 5.94 5.94 0 00-1.67-4.34zm-1.87 7h.08a.69.69 0 00.65-.46.78.78 0 00.12-.65.92.92 0 00-.4-.52.82.82 0 00-.46-.15.87.87 0 00-.72.45.9.9 0 00.05.89 11.45 11.45 0 00-1.3 5.14H5.4a12.87 12.87 0 00-1.3-5.13.69.69 0 000-.92.85.85 0 00-.7-.43.82.82 0 00-.46.15.92.92 0 00-.4.52.75.75 0 00.11.63.93.93 0 00.71.43 13.73 13.73 0 011.31 4.86 4.16 4.16 0 01-.94-.23 5.93 5.93 0 00-1.16-2.92l-.32-.52A6.28 6.28 0 01.72 9.9a5.63 5.63 0 015.5-5.29 5.28 5.28 0 015.27 5.27A6.55 6.55 0 0110 13.67a6.28 6.28 0 00-1.48 3.46 4.3 4.3 0 01-.94.21 14.29 14.29 0 011.24-4.75z"/><path d="M6.21 0a.43.43 0 00-.42.42v2.12a.46.46 0 00.38.53.43.43 0 00.42-.42V.42A.43.43 0 006.21 0z"/><path d="M2.22 1.62a.72.72 0 00-.46-.22.36.36 0 00-.26.1.6.6 0 00-.17.5l.9 1.46a.35.35 0 00.41.24h.12a.36.36 0 00.35-.21.39.39 0 00-.11-.38z"/><path d="M11.11 1.69a.39.39 0 00-.23-.23.36.36 0 00-.2-.06.42.42 0 00-.4.28l-.86 1.39a.43.43 0 00-.1.45.36.36 0 00.35.21h.11a.35.35 0 00.38-.24L11 2.11a.38.38 0 00.11-.42z"/></symbol><symbol id="linkedin" viewBox="0 0 18 18"><path d="M.3 6H4v12H.3zm1.9-6a2.2 2.2 0 110 4.4A2.29 2.29 0 010 2.2 2.22 2.22 0 012.2 0"/><path d="M6.4 6H10v1.6a4 4 0 013.5-1.9c3.8 0 4.5 2.5 4.5 5.7V18h-3.7v-5.8c0-1.4 0-3.2-1.9-3.2s-2.2 1.5-2.2 3.1V18H6.4z"/></symbol><symbol id="locale-en_GB" viewBox="0 0 14.64 21.94"><path d="M4.94 20.74a.78.78 0 01-.3.4c-.2.1-.3.2-.5.3s-.4.2-.2.3l.4.2a.55.55 0 00.5-.2c.1-.2.1-.4.5-.5s.7-.2.8 0 .2.2.3.2.2.1.2 0 .2 0 .2-.3 0-.4.2-.4.2-.2.5-.2.3-.2.5 0 .2.2.3.2.4.1.5-.1 0-.1.2-.4.1-.6.5-.4-.1.3.2.6.4.6.7.5 0-.5.3-.5.3.2.5.1a.66.66 0 01.6-.1c.2.1.1.1.3.1s.4.1.4 0 .1-.2.3-.2.2.1.3-.1.2 0 .3-.1.3 0 .3-.2.3-.1.3-.3.1-.4-.2-.4h-.7c-.1 0-.3 0-.2-.2s.4-.1.4-.3.1-.3.2-.3.3 0 .3-.1 0-.2.2-.2.3-.2.4-.5 0-.2.1-.4a.6.6 0 00.1-.4c0-.2-.1-.2-.3-.4s-.4-.1-.6-.3-.2 0-.6 0-.5-.1-.6.1l-.3.6q-.15.3-.3 0c-.1-.2-.2-.4 0-.5s.1-.1.3-.3.2 0 .2-.3.1-.3-.1-.4-.3-.1-.3-.5a4.17 4.17 0 01-.2-.6c-.1-.4 0-.4-.2-.6s-.5-.7-.8-.7-.5 0-.6-.2-.4-.3-.4-.6.1-.4 0-.7a2.12 2.12 0 01-.3-.7c-.1-.3-.1-.4-.4-.6a2.2 2.2 0 00-.8-.1c-.3 0 .1-.2-.3-.2s-.1 0-.2.1a.3.3 0 01-.4 0c0-.1-.1-.2.1-.2s0-.2.3-.2.1 0 .2-.2-.1-.3.1-.4.3-.3.4-.5.3-.4.4-.6a3.11 3.11 0 01.4-.6c.1-.1.1-.2.1-.4 0 .1-.1.1-.2-.1s-.7-.2-1-.2h-1.1c-.3-.1-.4.1-.5.1s-.2.1-.4.1-.5-.1-.3-.2.4 0 .3-.2-.5-.1-.2-.2.4-.1.5-.3.1-.3.4-.3.4-.3.5-.4.3-.2.1-.3c-.2.1 0 0-.2-.1a.85.85 0 00-.7 0c-.1.1-.3.1-.6.1s-.2.2-.4.2-.2 0-.3-.1 0-.1-.3-.1-.2 0-.3-.1-.2 0-.2.1a.6.6 0 01-.1.4c-.1 0 0 .2-.2.2s-.3.2-.2.2a.32.32 0 01.3.3c0 .1 0 .4-.2.4s-.3-.1-.4 0-.2.1-.2.4-.1.3.1.4.3.2.1.4-.3.1-.4-.1 0-.1-.1-.3 0-.2-.2-.3-.3-.1-.4 0-.6.1-.3.4.4.7.8.8.4 0 .5.1 0 .3-.1.4-.6.2-.5.4 0 .2.1.2.2.2.1.2-.3.1-.1.2a.76.76 0 00.4.1c.1 0 .2.1.3-.1s.1-.2.2-.3.1-.3.2-.1 0 .2-.1.2-.1.1-.1.2a.22.22 0 01-.2.2c-.3.2-.5.3-.5.4a.4.4 0 01-.4.2c-.2 0-.2 0-.2.2s-.1.1.1.3.2.2.3.2.1-.1.2-.2l.2-.2c.2-.2.2-.1.3-.3s.2-.2.2 0a.9.9 0 01-.1.5c-.1.2-.2.3-.2.4s-.1.3.1.3.2-.1.4-.2 0-.4.1-.4 0 .1.2.2.2 0 .3 0 .2-.2 0-.3c-.5 0-.5-.1-.5-.3s-.1-.3.1-.3.1 0 .1.2.1.2.2.2-.1.1.1.2.2.1.2.3a.55.55 0 01-.2.5c-.1.2-.4.4-.4.6s-.1.3.1.4.3.1.3.3.1.2.2 0 0-.3.1-.3 0 .1.2.1.4.1.4 0a.35.35 0 01.1-.2c.1 0 .1 0 .1.1s.1.1.2.1 0-.2.2-.2.1-.2.3-.2.1-.2.3-.2.2 0 .2.1a.22.22 0 01-.2.2c-.1 0-.3.2-.3.5a.86.86 0 00.3.6c.2.2.3.5.5.5s.3-.1.3 0a.22.22 0 01-.2.2.19.19 0 00-.1.3c0 .1.2.2.1.2s-.1 0-.1.1v.4c0 .2 0 .2-.1.2s0-.2-.1-.2h-.4c0 .1-.1.1-.2.1h-.5l-.2-.1a.22.22 0 00-.2-.2c-.1 0 0 .2-.2.3s-.2.2-.1.3.1.1.2.1a.19.19 0 01.1.3c-.1.1-.3.3-.1.3h.4c.2 0 .2.2.4.3s.1.2 0 .4a.76.76 0 01-.5.2c-.2 0-.6 0-.6.1s-.2.2-.3.3-.4.3-.5.4 0 .2-.2.2-.1 0-.1.2 0 .3.1.3a.37.37 0 01.3.1c.1.1.3.2.4.1s0-.1.1-.2.2 0 .2-.2.2-.2.2-.1 0 .4.1.4.5-.2.6 0a.22.22 0 00.2.2c.1 0 .2.2.3.2h.6c0-.1 0-.1.2-.1s.1.1.1.2-.1.3-.4.3-.3.1-.4 0-.2 0-.2-.1-.3-.2-.4 0a1.38 1.38 0 01-.4.3c-.1.1-.1.2-.4.2s0-.1-.1 0-.1.2-.2.3c.1.1-.1.1-.2.4z"/><path d="M5.44 13.34a.49.49 0 01-.1.3l-.2.2c0 .1-.1.2 0 .3h.3c0-.1 0-.1.1-.1a.32.32 0 00.3-.3c0-.2 0-.3-.1-.3-.1-.2-.3-.2-.3-.1z"/><path d="M1.44 7.44s-.2 0-.2.1-.1.2 0 .2a.6.6 0 00.4.1c.1-.1.1-.1.1-.2s-.2-.2-.3-.2z"/><path d="M1.44 6.74l-.2.2c.1.1.1.1.2.1s.1 0 .1-.1 0-.3-.1-.2z"/><path d="M1.74 5.64s-.1.5.1.5.1.1.1.2c-.2 0-.4.1-.2.2s.3.1.3 0a.32.32 0 01.3-.3c.2 0 .4.1.4-.1s0-.4.1-.4.1-.3.2-.3.2-.1.1-.2-.1-.3-.2-.3 0 .3-.2.2-.3 0-.4.1 0 .3-.2.3-.4-.1-.4.1z"/><path d="M7.44 3.64s-.3 0-.3.1.1.2-.1.3-.2.3 0 .3.3 0 .3-.1 0-.1.1-.1.2 0 .2.1a.37.37 0 00.1.3c.1 0 .1 0 .1-.2s.2-.1.2-.2.1-.3-.1-.3-.3 0-.4-.1a.1.1 0 00-.1-.1z"/><path d="M10.04.54a.36.36 0 00-.3.2c0 .2 0 .3-.1.4s0 .2.1.3.2.1.2.3.1.3.2.3.2 0 .2-.3 0-.4.1-.4c-.1-.1 0-.3 0-.4a.35.35 0 00-.4-.4z"/><path d="M10.54.24a1 1 0 00-.1.3c0 .1.2.1.3 0a1 1 0 01.1-.3c.1-.1.2-.1.1-.1-.1-.2-.3-.2-.4.1z"/><path d="M7.64 3.14s-.2-.1-.2 0 0 0 .1.2.2.2.3.2.3-.1.1-.2-.3 0-.3-.2z"/><path d="M8.14 3.34a.35.35 0 00-.1.2c0 .1.1.1.2-.1s.1-.2-.1-.1z"/><path d="M2.54 8.84h-.2v.1h.1a.1.1 0 00.1-.1z"/><path d="M4.14 13.24a.75.75 0 00-.1-.5c-.1 0-.2 0-.3-.3s-.4-.3-.4-.5-.2-.1-.2-.2-.4-.1-.6-.1-.7.1-.8 0a1.06 1.06 0 00-.5-.2c-.1 0 0 .2.1.3s0 .2-.1.2a.45.45 0 010 .5c-.2.2-.5.1-.5.3a.37.37 0 01-.4.4c-.2 0-.7.2.1.5s1 .7 1 .2.2-.7.5-.4.3.2.4.5.3.3.4.1.2-.2.3-.1c.2 0 .2.2.3.2s.1-.1.2-.2.1-.2.3-.3.1-.2.3-.3c.1.1 0 .1 0-.1z"/></symbol><symbol id="locale-en_IN" viewBox="0 0 19 19.35"><path d="M19 5.6h-.2c-.1 0-.1 0-.1-.1s-.2 0-.3 0 0-.1 0-.2.1-.1 0-.1 0-.1-.1-.1 0-.1 0-.2a.1.1 0 00-.1-.1.1.1 0 00-.2 0c-.1 0-.2.2-.2.2h-.3c-.1 0-.1-.1-.2-.2s-.2.1-.3.1l-.2.2c-.1.1-.3.3-.4.3s-.1.1-.2.1a.22.22 0 01-.2.2c-.1 0-.1.1-.1.2s-.2.1-.3.1-.2 0-.2.1h-.1v.1a.35.35 0 00.2.1v.2a.1.1 0 00.1.1c.1.1-.2 0-.3 0H15c-.1 0-.3 0-.3.1s-.2 0-.2 0a.1.1 0 00-.1-.1c-.1 0-.1 0-.1.1s-.1.1-.2.1-.2 0-.2-.1a1 1 0 00-.3-.1c-.1.1-.1-.1-.1-.1v-.6c0-.1 0-.1-.1-.1s-.1 0-.2.1h-.1v.2a.1.1 0 00-.1.1v.3l.1.1a.1.1 0 00.1.1c-.1 0-.1.1-.2.1h-.6c-.1-.1-.1 0-.2 0s-.2-.1-.4-.1-.3.1-.3 0-.1 0-.2 0-.1-.1-.2-.1a.35.35 0 01-.2-.1c0-.1-.1-.1-.1-.2s-.1-.1-.2-.1-.1 0-.2.1h-.5c-.1 0-.1 0-.2-.1s-.1-.1-.2-.1a.37.37 0 01-.3-.1c-.1-.1-.1 0-.1 0h-.2c-.1-.1-.2-.1-.2-.2a.31.31 0 00-.2-.1c-.1 0-.2 0-.2-.1s-.2-.1-.3-.1-.1-.1-.1-.2 0-.1.1-.2.1-.1.1-.2 0-.1.1-.2l.2-.2c.1-.1.1-.1.1-.2s-.1 0-.2-.1-.1-.1-.3-.1-.1-.1-.2-.2-.2-.2-.4-.2-.1-.1-.2-.2-.2 0-.3 0 0-.4-.1-.5-.1-.1-.1-.2a.14.14 0 010-.2c.1 0 .1-.1.2 0l.1.1c0 .1.2 0 .2-.1s.1-.1.2-.1 0-.1-.1-.2 0-.1-.1-.1 0-.1-.1-.1a.19.19 0 01-.1-.3c.1-.1 0-.1-.1-.2s0-.2.1-.2.1 0 .2.1.1 0 .2 0 .2-.2.2-.3.1-.1.2-.1.1-.2.1-.3 0-.1.1-.2-.1-.1-.2-.1-.2-.1-.3-.2-.3-.3-.4-.3-.1 0-.3.1-.1.1-.2.1-.1.1-.1.2v.3c0 .1-.1 0-.2-.1s-.2 0-.3 0a.32.32 0 00-.3.3c0 .1-.2.1-.4.1s-.2.1-.4.1-.3 0-.4-.1a1 1 0 00-.3-.1C4.1.9 4 .8 3.8.8s-.1.4-.1.5 0 .1.1.2.1.1 0 .2.1.2.1.3.1.2.1.3.2.1.2.2.2.2.4.2.1.1.1.1-.3.1-.4.1a.19.19 0 00-.1.3.14.14 0 010 .2.31.31 0 00.1.2c.1 0 0 .1-.1.1s-.2.1-.3.2-.1.1-.1.3-.2.2-.3.2-.1.2-.1.3-.1.1-.2.3-.2.2-.4.2-.2.3-.3.4a.35.35 0 00-.1.2c0 .1-.3.1-.4.1s-.1 0-.2.1-.1.1-.2.1a.1.1 0 01-.1-.1c0-.1.1-.2 0-.2s-.2.1-.3.3-.1.3-.3.3-.1.2-.1.3.2.1.3.1.1 0 .2.1 0 .2-.1.2 0 .1 0 .2.1.1.2.1.1.2.2.2 0 .2.1.3 0 .1 0 .2 0 .1-.1.2-.1.1-.1 0 .1 0 0 0-.1.1-.2.1-.1.1-.2.1-.2 0-.2-.1-.2 0-.4 0-.2.1-.2.2-.1.1-.2.1-.1.1-.1.2.1.2.2.3a3.33 3.33 0 00.6.3c.2.1.4-.1.6 0s0 .2-.2.2-.2.1-.3.1-.3 0-.3.1.3.4.5.6l.5.5c.2.2.3.2.4 0s.3-.3.5-.4.2-.2.2-.3v-.5c0-.1.2 0 .2.2s.1.1 0 .3.2.4.2.5 0 .2-.2.4 0 .5 0 .7a10.26 10.26 0 00.4 1.4 1.69 1.69 0 00.3 1 3.13 3.13 0 01.5 1 3.09 3.09 0 01.2.8 2 2 0 00.4.8 4.05 4.05 0 01.5.9 2 2 0 01.1.7c0 .3.4.5.4.7a.28.28 0 00.5 0c.1-.1.3-.3.3-.4a.9.9 0 01.5-.1c.2-.1.1-.2.1-.3a1.33 1.33 0 01.3-.5c.1-.1.3-.1.3-.2s0-.4-.1-.5a.6.6 0 01.1-.4c.1-.1.1-.3.2-.4A.6.6 0 008 16v-.4c0-.2-.1-.2-.1-.3a.6.6 0 00-.1-.4 1.09 1.09 0 01.1-.5c.1-.2.1-.2.3-.2s.3-.1.5-.3.3-.1.5-.2.2-.4.3-.5.3-.1.4-.3.4-.3.5-.4.3-.2.5-.4.3-.5.5-.5.3-.1.5-.1.3-.3.5-.4 0-.3.1-.4 0-.3.2-.3a.6.6 0 00.4-.1c0-.1.1-.1.2 0s.2.1.2.1.3-.1.4 0V10a.1.1 0 00-.1-.1v-.4c0-.1 0-.1-.1-.2s-.1-.1-.1-.2v-.4c0-.1-.1-.2-.1-.3a.1.1 0 01-.1-.1c-.1-.1 0-.1 0-.2a7961344843652.73 7961344843652.73 0 00.2-.2c.1 0 .2 0 .2-.1s.1-.1 0-.2h-.3c-.1 0-.1-.1-.1-.2a.1.1 0 00-.1-.1.1.1 0 01-.1-.1c0-.1 0-.1.1-.1s0-.1.1-.1.1-.1 0-.1v-.1l.1.1c.1 0 .2 0 .2.1a.22.22 0 00.2.2c.1 0 .2-.1.3-.1s.1 0 .1.1-.1.2 0 .2-.1.2 0 .2.1 0 .2.1a.37.37 0 00.3.1h.5c.1 0 .1.1.3 0s.3 0 .3 0a.1.1 0 01.1.1s.1.1 0 .1a.1.1 0 00-.1.1s-.4.2-.4.3-.1.1-.2.1h-.1l-.2.1a.1.1 0 01-.1.1 1 1 0 01.1.3c0 .1 0 .1.1.1s.2.2.2 0 0-.3.1-.3a.1.1 0 01.1-.1c.1 0 .2-.1.2 0V9a.35.35 0 01.1.2c0 .1.1.1.1.2v.3h.1c.1 0 .2.1.2 0a.1.1 0 01.1-.1.1.1 0 00-.1-.1.1.1 0 01-.1-.1.37.37 0 01.1-.3c.1-.1.1-.1.1-.2v-.4c-.1 0-.1-.1 0-.1s.1.1.2.1a.35.35 0 01.2.1.1.1 0 00.1-.1c0-.1-.1-.3.1-.3s0-.2.1-.2.1-.1.1-.2.1-.1 0-.2a.1.1 0 01-.1-.1.1.1 0 00.1-.1.1.1 0 01.1-.1s.2-.1.2-.2.1-.1.1-.2V7c0-.2.1-.3.2-.3s.2-.1.3-.3a.36.36 0 01.3-.2.49.49 0 01.3.1c.1.1.1.1.1 0s-.1-.1-.1-.2 0-.2.1-.2.1-.1.1-.2c.2 0 .2 0 .2-.1z"/></symbol><symbol id="locale-en_US" viewBox="0 0 22.7 11.1"><path d="M22.6 2c-.1-.1-.1-.2-.2-.2s0-.4 0-.5v-.2a.31.31 0 00-.1-.2c-.1-.1-.2 0-.2.1s-.1.1-.1 0-.1 0-.2 0-.1.2-.2.3a.31.31 0 00-.1.2.49.49 0 01-.1.3c-.1.1-.1.2-.2.2a.35.35 0 00-.2.1h-1.2c-.4 0-.3.2-.5.3s-.1.1-.2.1v.2c0 .1 0 .1-.1.1a.1.1 0 00-.1.1c0 .1-.1 0-.2 0h-.6c-.1 0-.1 0-.1.1v.3c0 .1-.1.1-.2.1s-.1.1-.2.1-.1 0-.2.1-.1 0-.2.1a.35.35 0 00-.2.1h-.4c-.1 0-.1 0-.2-.1s-.1-.1 0-.1v-.2l.2-.2a.37.37 0 00.1-.3v-.1h-.1c-.1 0 0-.1 0-.1v-.2h-.2c-.1 0 0 0-.1.1s0 .1-.1.1 0-.1 0-.1a.35.35 0 00.1-.2c-.1.1-.1 0-.1-.1v-.2a.31.31 0 00-.1-.2c-.1-.1-.1-.1-.2-.1a.37.37 0 00-.3-.1c-.1 0-.1 0-.1.1a.1.1 0 01-.1.1v.2c0 .1 0 .1-.1 0V2s0-.1-.1 0h-.1c-.1 0 0 .1-.1.1v.2c0 .1 0 .1-.1.1s0 .3 0 .3 0 .1.1.1.1.2 0 .3v.2a.35.35 0 00-.1.2c0 .1 0 .1-.1.1s-.1.1-.2.1-.1 0-.1-.1a.1.1 0 00-.1-.1v-.3c0-.1-.1-.1-.1-.2v-.4c.1 0 0-.2 0-.2a.1.1 0 01.1-.1l.1-.1c.1-.1 0 0-.1 0s0 0-.1.1-.1 0-.1 0a.1.1 0 01.1-.1l.1-.1a.31.31 0 01.2-.1h.1c.1 0 .1 0 .1-.1h.2a.1.1 0 00.1-.1c.1 0 .1 0 .1.1h.6l.1-.1h-.1a.1.1 0 01-.1-.1l-.1-.1h-.1a.1.1 0 01-.1-.1l-.1-.1h-.4a.1.1 0 00-.1.1h-.3c-.1 0-.1 0-.1-.1a.1.1 0 00-.1-.1h-.2l.1-.1h.1v-.1h-.2c-.1 0-.1.1-.2.1s-.1.1-.2.1h-.2c-.1 0-.1.1-.2.1s-.1.1-.1 0v-.1h-.1v-.1H13a.1.1 0 00-.1.1h-.1a.1.1 0 01.1-.1c.1 0 .2-.2.2-.2s.1-.1.2-.1.2-.1.3-.2h-.4a.1.1 0 00-.1.1H13c-.1 0-.1 0-.1-.1s-.1-.1-.1 0-.1 0-.2-.1a.1.1 0 00-.1-.1s-.3-.2-.3-.1H12a1 1 0 00-.3-.1.1.1 0 01-.1-.1V.1l-.1-.1v.1l-.1.1H.5c.1.1.1.1.1.2v.2C.6.7.6.6.7.8a.1.1 0 01-.1.1V.8L.5.7C.4.7.5.6.5.5v.1C.5.7.3.6.3.6S.1.6.1.5H0v.1c0 .1 0 .2.1.2a.35.35 0 01.1.2c0 .1 0 .2.1.2s.1.1 0 .1v.8c0 .1 0 .1-.1.3v.5c0 .1 0 .2-.1.2a.35.35 0 01-.1.2v.2c0 .1 0 .1.1.2s.1.1.1.2v.3c0 .1 0 .1-.1.1v.2c0 .1.2.2.2.3a.37.37 0 00.1.3c0 .1 0 .1.1.2-.1 0-.1 0-.1.1s0 .1.1.1.1 0 .1.1v.2c0 .1 0 .1.1.1a.35.35 0 01.2.1l-.1.1v.1c.1 0 .2.3.3.4s.1.1.1.2 0 .2.1.2a.6.6 0 01.4.1c.2.1.2.2.4.2a.37.37 0 01.3.1l.2.2.2.2V8h.3c.2 0 .5-.1.7 0s.1.1.2.1a1.06 1.06 0 01.5.2c.2 0 .5.2.7.2h1.1a.1.1 0 00.1-.1c0-.1 0-.1.1-.2s.6-.1.6.1l.3.3a.35.35 0 00.2.1c.1 0 .1 0 .1.1s.1.1.1.2a.35.35 0 00.1.2.35.35 0 01.2.1s.3.2.4 0 .1-.3.3-.3.3 0 .4.1l.1.1.1.2c0 .1.1.2.2.3s.1.2.2.2v.3a.1.1 0 00.1.1c0 .1 0 .1.1.1s.2 0 .2.1.2.1.2.1h.3v-.1c0-.1-.1-.2-.1-.3V10c0-.1.1-.1.2-.2l.2-.2a.1.1 0 01.1-.1c.1 0 0 .1.1.1a.31.31 0 00.2-.1c0-.1.2 0 .2-.1s.1-.1.1-.2-.1-.1 0-.1.1 0 .1.1 0 0 .1 0h.2c0-.1.1-.1.2-.1a.37.37 0 01.3.1c0 .1.1.1.2 0s.1-.1.3 0 .1 0 .1.1.1.1.2.1.1-.1.2 0 .1.1.1 0 0-.2.1-.1l.1.1a.1.1 0 00.1.1l.1-.1a.1.1 0 00-.1-.1c-.1 0-.2 0-.1-.1s.1 0 .1-.1a.1.1 0 00-.1-.1s-.1-.1 0-.1h.1c0-.1.1-.1.2-.1h.2s.1.1.1 0 .1-.1.1 0a.1.1 0 00.1.1h.1c0-.1 0 0 .1 0h.3c.1 0 .1.1.2.1s.2 0 .2.1 0 .1.1.2h.1c.1-.1.1 0 .1-.1a.35.35 0 01.2-.1c.1 0 .3 0 .3.1s0 .1.1.1 0 .1.1.1a.1.1 0 01.1.1v.3c0 .1 0 .2.1.2v.1c0 .1 0 .2.1.2a2828450.51 2828450.51 0 00.2.2c0 .1 0 .2.1.2s.1.1.2.2a.35.35 0 00.1.2c.1 0 0-.1.1 0s.1 0 .1-.1 0-.2.1-.2v-.6a.31.31 0 01-.1-.2.35.35 0 00-.1-.2v-.2a.69.69 0 01-.5-.3c0-.1-.1 0-.1-.1v-.5c0-.1.1-.1.1-.2s0-.2.1-.2.1-.2.1-.2a.1.1 0 00.1-.1c.1 0 .1 0 .1-.1s.2-.1.2-.1 0-.2.1-.2.1-.1.3-.1.2 0 .2-.1.1-.1.1-.2.1-.1.2-.1h.3V7h-.1c0-.1-.1-.1 0-.1s0 .1.1.1h.2a.1.1 0 00.1-.1c0-.1 0-.2-.1-.1H19a.1.1 0 01.1-.1h.2v-.1c0-.1-.1-.1-.1-.2s0-.1-.1-.1-.1 0-.2-.1-.1-.1 0-.1h.1V6l-.1-.1c-.1 0-.1-.2-.1-.1a.1.1 0 01.1.1s.1.1.1 0-.1-.1-.1-.2v-.2c0-.1 0-.1.1-.1s.1 0 .1.1-.1.2 0 .2.1 0 .1.1.1 0 0 .1-.1.2-.1.3.1.1.1 0 .1-.1.1-.2.1-.1.1-.2 0-.1.1-.2.1-.1 0-.2-.2-.1-.2-.2-.1-.1 0-.2.1-.1.1 0v.2a.1.1 0 01.1.1c0 .1.1.1.1 0a.1.1 0 01.1-.1.35.35 0 00.1-.2c0-.1.1-.1.1-.2v-.1a.1.1 0 01.1-.1h.3c.1 0 .1-.1.2-.1h.1c.1 0 .2-.1.1-.1h-.5a.1.1 0 01-.1-.1h.1c.1-.1.1 0 .2 0h.4c.1 0 .1-.1.1 0s.1 0 .1 0h.1s.1.1.1 0a.1.1 0 01.1-.1s.2 0 .1-.1V4s-.2-.1-.1 0l.1.1s-.1.1-.1 0 0-.2-.1-.2-.1-.1 0-.1c0-.5.1-.5 0-.6s0-.1 0-.2.1-.3.2-.3h.2l.1-.1c.1 0 .1 0 .1-.1s0-.2.1-.2 0 .1.1.1.2.1.2 0 0-.1.1-.1h.4c0-.1 0-.1-.1-.3z"/></symbol><symbol id="locale-es_LA" viewBox="0 0 13.64 23.19"><path d="M7.7 2.84h.1a.1.1 0 01.1-.1H8c.1 0 .1 0 .1-.1a.1.1 0 01.1-.1h.2v.1a.1.1 0 00.1.1h.2a.1.1 0 01.1.1l.1.1H9a.1.1 0 01.1.1.1.1 0 00.1.1c.1 0 .2 0 .2.1v.1a.1.1 0 00-.1.1h.6a.1.1 0 01.1-.1h.1a.1.1 0 01-.1-.1.1.1 0 01-.1-.1h-.1a.1.1 0 00-.1-.1h-.1c-.1 0-.1 0-.2-.1l-.1-.1-.1-.1s-.1-.1-.1 0a.1.1 0 00-.1-.1.1.1 0 01-.1.1h-.1a.1.1 0 00-.1-.1c.1-.1.1-.1 0-.1H8a.35.35 0 01-.2.1.1.1 0 00-.1.1c.1 0 .1 0 0 .1z"/><path d="M10.8 3.74a.1.1 0 00.1.1h.1l.1-.1c.1 0 .1.1.1 0h.2c.1 0 .2.1.2 0v-.2a.35.35 0 00-.2-.1h-.2c0-.1 0 0-.1-.1s-.1 0-.1-.1h-.3v.2c.1.1.1.1.1.3z"/><path d="M8.6 6.34l.1.1h.2v-.1l-.1-.1.1-.1a.1.1 0 00.1-.1v-.1l-.1-.1-.1.1c-.1 0-.2.1-.2 0a.1.1 0 00-.1-.1c-.1 0-.1 0-.1-.1a.1.1 0 00-.1-.1l-.1-.1-.1-.1v-.4s.1-.1 0-.1-.1-.1 0-.1v-.4a.1.1 0 01-.1-.1H6.7v-.1a.1.1 0 00.1-.1v-.3h.1v-.5a.1.1 0 01.1-.1h.1s.1-.1 0-.1v-.3h-.4c-.1 0-.3 0-.3.1a.1.1 0 00-.1.1v.2l-.1.1c0 .1 0 .1-.1.1a.1.1 0 00-.1.1c-.1 0-.1 0-.1-.1h-.5s-.1.1-.1 0h-.1a.1.1 0 00-.1-.1h-.2l-.1-.1v-.2a.1.1 0 00-.1-.1c.1.2.1.2.1.1v-.3l-.1-.1v-.6c0-.1 0-.1.1-.2a.35.35 0 00.1-.2h-.2a.1.1 0 01-.1-.1c0-.1-.1 0-.1 0a.1.1 0 01-.1-.1v-.3s-.3.2-.4.1 0-.1-.1-.2 0-.1-.1-.1 0 0-.1-.1-.1 0-.2-.1-.1 0-.2.2-.2 0-.2 0a.1.1 0 01-.1-.1l-.1-.1v-.1c0-.1 0-.1-.1-.1h-.1l-.2-.2c-.1-.1-.3 0-.4 0s-.1 0-.1.1h-.6a.76.76 0 01-.4-.2 1 1 0 01-.3-.1.1.1 0 01-.1-.1c-.1-.1-.3 0-.4 0H0l.1.1c0 .1 0 .1.1.2a.1.1 0 00.1.1l.1.1c0 .1 0 .2.1.2l.1.1c.1 0 .1 0 .1.1l.1.1.1.1v.1H.8s-.1 0 0 .1l.1.1c-.2 0-.2.1-.1.1h.1l.1.1a.1.1 0 01.1.1v.2s-.1.1 0 .1l.1.1a.1.1 0 01.1.1l.1.1.1.1c.2.1.1.1.2.1h.1v-.1a.1.1 0 00-.1-.1.1.1 0 00-.1-.1h-.2v-.1s.1-.1 0-.1l-.1-.1a.1.1 0 00-.1-.1v-.2c0-.1 0-.1-.1-.1s-.1-.2-.2-.2a.1.1 0 01-.1-.1c0-.1 0-.1-.1-.1.3 0 .2-.1.2-.1v-.1H1L.9.84H.8S.6.74.6.64v-.2a.1.1 0 00-.1-.1c0-.1 0-.1.1-.1h.2a.1.1 0 00.1.1c.1 0 .1 0 .1.1v.1a.1.1 0 00.1.1c0 .1 0 .1.1.1v.1s-.1.1 0 .1.1.1.1 0 0-.1.1 0a.1.1 0 00.1.1.1.1 0 00.1.1c.1 0 .1 0 .1.1s0 .1.1.1c-.2.2-.1.2-.1.2a.1.1 0 00.1.1c.1 0 .1 0 .1.1v.2a.1.1 0 01.1.1.1.1 0 01.1.1c0 .1 0 .1.1.1l.3.3c0-.1.1 0 .1 0s.2.2.2.3v.2a.1.1 0 00-.1.1v.1s-.1.1 0 .1l.1.1c0-.1 0 0 .1.1h.2l.2.2h.4c0 .1.1.1.2.1s.1.1.2.1.1.1.2.1.1 0 .2.1.1.1.2.1H5a.35.35 0 01.2-.1c.1 0 .1-.1.2 0s.1 0 .2.1l.2.2v.1c0 .1 0 .1.1.1l.1.1c.1.1.1.1.2.1h.3l.1.1c.1 0 .1 0 .2.1s.2.1.2 0h.1s.1.1 0 .1H7a.1.1 0 00.1.1c.1 0 .1 0 .1.1l.1.1.1.1v.3a.1.1 0 01.1.1s.1.1.1 0 .1-.1.1 0 0 .1.1.1a.31.31 0 01.2.1s.1 0 0 .1v.1c.1 0 .1.1.2.1h.1c.1 0 .1 0 .1.1 0-.3.1-.3.2-.2zm-2-1.7zm0 0zm0 0zm0 0zm0 0zm0 0zm0 0zm0 0zm.1-.8zm-.4 0zm.3.8z"/><path d="M10.2 19.54a.1.1 0 00.1.1v.2-.2c0-.1 0-.1-.1-.1z"/><path d="M10.3 19.44c.1 0 .1-.1 0 0 .1-.1 0-.2 0 0z"/><path d="M10 21.44c0-.1 0-.1.1-.1s.1 0 .1-.1h-.1v.1c-.1 0-.1 0-.1.1z"/><path d="M10.1 21.64c.1 0 .1-.1 0 0H10v.1l.1-.1z"/><path d="M10.2 21.84c-.1 0 0-.1 0 0l-.1-.1v.1z"/><path d="M10.3 21.94s-.1-.1-.1 0h.1c0-.1.1 0 0 0z"/><path d="M10.5 22.24c-.1-.1-.1-.1-.2-.1h-.1s-.1-.1-.1 0a.1.1 0 00.1.1h.2c.1 0 .1.1.1 0z"/><path d="M12.1 22.84a.1.1 0 01-.1-.1c0-.1-.1 0-.1 0h-.3v-.7h-.2v.1h-.2v.1h.2a.1.1 0 01-.1.1.1.1 0 00-.1.1v.1a.1.1 0 01.1.1h-.1v-.2s-.1 0 0 .1a.1.1 0 01.1.1h-.1a.1.1 0 00-.1-.1h-.2s-.1.1 0 .1h.3l.1.1s0 .1-.1 0h.1s-.1.1 0 .1h.1s.1.1.1 0v-.1h.1s-.1.1 0 .1a.1.1 0 01.1.1 3980672421826.08 3980672421826.08 0 00.2.2c0 .1.1 0 0 0l-.1-.1v-.1a.1.1 0 00.1.1h.1s.1.1.1 0v-.1c0 .1-.1-.1 0-.1z"/><path d="M1.9 14.74c0 .1-.1.1 0 0z"/><path d="M11.6 5.24c.1 0 0-.1 0 0z"/><path d="M11.5 5.14c.1.1 0 .1 0 0z"/><path d="M13.6 6.14a.31.31 0 00-.2-.1c-.1 0-.1.1-.1 0v-.2s.1 0 0-.1l-.1-.1h-.3v-.1h-.1c0-.1 0 0 .1 0h-.1c.1 0 0 0 0 0h-.2a.37.37 0 01-.3.1c-.1 0-.1 0-.2-.1h-.2c-.1 0 0 .1-.2 0s-.1 0-.2-.1-.1-.1-.2-.1-.1 0-.2-.1 0-.1-.1-.1-.1 0 0 .1.1.1 0 .1a.35.35 0 00-.2.1s-.1.1 0 .1a.35.35 0 01.1.2c0 .1 0 .1-.1.1h-.1a.1.1 0 01-.1-.1c.2 0 .2 0 .2-.1v-.1c0-.1-.1-.1 0-.2h.1a.1.1 0 100-.2.35.35 0 01-.2.1l-.2.1s0 .1-.1 0h-.2a.1.1 0 01-.1.1H10c-.1 0-.1.1-.1.2v.2a.1.1 0 00-.1.1l-.1.1s-.1.1-.1 0a.1.1 0 00-.1-.1l-.1-.1c-.1-.1-.1-.1-.2-.1H9v.2s.1.1.1 0h.3s.1 0 0 .1a.1.1 0 00-.1.1v.1l.1.1a.1.1 0 00.1.1v.6c0 .1-.1.1 0 .1s.1 0 0 .1a.1.1 0 01-.1.1.1.1 0 01-.1.1.31.31 0 00-.2.1v.1c-.1 0-.1 0-.1.1v.2h-.2a.1.1 0 00-.1.1v.2c-.1 0-.1 0-.1.1v.1a.1.1 0 00-.1.1v.2s-.1 0 0 .1a.1.1 0 01.1.1s.1.1.1 0l.1-.1s.1.1 0 .1-.1 0 0 .1.1.1 0 .1h-.1a.1.1 0 00-.1.1c0 .1 0 .1-.1.1s-.1.1 0 .1v.1a.1.1 0 00.1.1v.1s-.1.1 0 .1.1 0 .1.1.1.1.2.2.1.1.1.2 0 .1.1.2a.35.35 0 00.1.2.35.35 0 00.1.2.1.1 0 00.1.1v.2c.1 0 .1 0 .1.1l.1.1.1.1s-.1 0 0 .1 0 .1.1.1a.1.1 0 01.1.1.1.1 0 00.1.1.1.1 0 01.1.1c.1 0 .1.1.2.1s.1.1.2.1.1.1.2.1.1 0 .1.1 0 .1.1.1a.1.1 0 01.1.1c0 .1 0 .2.1.2s.1.2 0 .2a.1.1 0 00-.1.1v.5s-.1.1 0 .1.1.1 0 .1 0 .1 0 .1v.6c0 .1 0 .1-.1.2v.3l-.1.1v.2l-.1.1v1.3c0 .1 0 0-.1.1s-.1.1-.1.2 0 .1-.1.2 0 .1 0 .1a.1.1 0 01-.1.1h-.1s0 .2.1.2v.5l-.1.1v.3a.1.1 0 00.1.1s.1.1 0 .1h-.1v.4h.1v-.2a.1.1 0 01-.1-.1s.1 0 0-.1v-.2a.1.1 0 00.1-.1h.1s-.1 0 0 .1.1 0 0 .1-.1 0-.1.1v.2a.1.1 0 01-.1.1v.1s-.1.1 0 .1 0 0 0 .1v.3h-.1s.1 0 0 .1H10v-.1c0 .1 0 .1-.1.1a.1.1 0 00-.1.1v.1a.1.1 0 00-.1.1s-.1.1 0 .1h.4v.3h.2s.1.1 0 .1h-.2s-.1 0 0 .1a.1.1 0 01.1.1v.1h-.1v-.1s.1-.1 0-.1-.1.1-.1 0h-.1v.2h.2v.1a.1.1 0 00-.1.1l.1.1c0-.1 0-.1.1-.1v.1a.1.1 0 01-.1.1h.1c0-.1 0-.1.1-.1s0 0 0 .1v.1c-.1 0-.1 0-.1.1a.1.1 0 01.1.1c-.1 0-.1 0-.1.1a.1.1 0 000 .2s.1-.1.1 0v.1h.1v.1a7961344843652.73 7961344843652.73 0 01-.2.2c0 .1.1.1.1 0v-.1h.1v.1h.1s0-.1.1 0h.1v.1h-.2s-.1.1 0 .1a.1.1 0 00.1.1s-.1.1 0 .1h.1v.1h.1l.1-.1.1-.1c.1 0 .1 0 0-.1s-.1 0-.1 0-.1.1-.1 0-.1-.1 0-.1h.2a.1.1 0 01.1.1v.1H11a.1.1 0 01-.1.1h-.4v.1s.1 0 0 .1 0 0 .1 0h.1a.1.1 0 00.1-.1.1.1 0 01.1-.1h.2v-.4h.1l.1-.1h.1s0-.1.1 0l.1.1h-.8a.1.1 0 01-.1-.1v-.3c0-.1 0 0-.1 0h-.2v-.4a.1.1 0 00.1-.1l.1-.1c.1-.1 0-.1 0-.1a.1.1 0 00.1-.1v-.3l.1-.1v-.1a.1.1 0 00.1-.1v-.1c-.1 0 0-.1 0-.1v-.1l.1-.1c.1-.1 0-.1 0-.1h-.1v-.1c0-.1.1 0 .1 0a.1.1 0 00.1-.1c0-.1-.1 0-.1 0v-.6l.1-.1c.1-.1 0 0 0-.1v-1h.1v-.5a.1.1 0 01.1-.1c.1 0 0-.1.1-.1v-.4a.1.1 0 01.1-.1c.1 0 0-.1.1-.1v-.1l-.1-.1v-.6a.1.1 0 01.1-.1c.1 0 0-.1 0-.1a.1.1 0 01.1-.1c.1 0 0-.1 0-.1v-.2c0-.1 0-.1.1-.1s0-.1 0-.1a.1.1 0 01.1-.1l.1-.1v-.1a.1.1 0 01.1-.1h.1v-.7a.1.1 0 00.1-.1l.1-.1v-.3c0-.1-.1 0-.1 0s0-.1-.1-.1-.1-.1-.1-.2 0-.1-.1-.1a.1.1 0 00-.1-.1c-.1 0 0-.1 0-.1v-.2a.1.1 0 00-.1-.1c-.1 0-.1-.1-.1-.2v-.1a.1.1 0 00-.1-.1v-.1l.1-.1v-.1l-.1-.1c-.1-.1 0-.1 0-.1v-.2l.1-.1v-.3c0-.1 0-.1.1-.1s0-.1 0-.1a.1.1 0 00-.1-.1l-.1-.1a.1.1 0 00-.1-.1h-.2v-.4a.1.1 0 00-.1.1c0 .1 0 0-.1.1a1.44 1.44 0 01-.3.2v-.1a.1.1 0 01-.1-.1s-.1 0 0-.1v-.1l-.1-.1-.1-.1-.1-.1v-.2c0-.1 0-.1.1-.1h.1v-.3l.1-.1.1-.1h.2c.1 0 .1 0 .1-.1s.1 0 .1 0h.1v-.8a.1.1 0 00-.1-.1v-.2c0-.1.1 0 .2 0s0 0 0-.1h-.1v-.1h.7a.1.1 0 01.1.1v.2h.3s0-.1.1 0 0 .1.1 0a.1.1 0 01.1-.1c.1 0 0-.1.1-.1h.1a.1.1 0 01.1-.1h.1l-.3-.1h-.1v-.3l-.1-.1h.4v.1h.1v-.1h.4a.1.1 0 00.1-.1l-.1-.1-.1-.1c-.1-.1 0-.1 0-.1v-.1h.2v-.1l-.1-.1a.1.1 0 01.1-.1v-.2zm-1.7 1.4zm0 .1zm0 0zm-2 .5zm0 0zm0 0zm0 0zm0 0zm0 0zm.1 0zm-.1 0zm0 0zm0 0zm2-.5z"/></symbol><symbol id="locale-globe" viewBox="0 0 20 20"><path class="cls-1" d="M12 2a10 10 0 1010 10A10 10 0 0012 2m.3 5.7a22.86 22.86 0 002.5-.2 13 13 0 01.8 4.2h-3.2v-4zm0-.8V2.8a14.15 14.15 0 012.2 3.9 7.84 7.84 0 01-2.2.2m-.6 0a15 15 0 01-2.2-.2 12.17 12.17 0 012.2-3.9zm0 .8v4H8.4a13.07 13.07 0 01.8-4.2 22.86 22.86 0 012.5.2m-3.9 4h-5a8.9 8.9 0 012.1-5.5 18.87 18.87 0 003.7 1.1 11.52 11.52 0 00-.8 4.4m-.1.6a11.6 11.6 0 00.8 4.3 19.2 19.2 0 00-3.7 1.1 9.4 9.4 0 01-2-5.4zm.7 0h3.3v4a21.05 21.05 0 00-2.5.2 12.49 12.49 0 01-.8-4.2m3.3 4.8v4.2a13.28 13.28 0 01-2.2-4 7.84 7.84 0 012.2-.2m.6 4.1V17a15 15 0 012.2.2 10.19 10.19 0 01-2.2 4m0-4.8v-4h3.2a10.84 10.84 0 01-.8 4.2 15.42 15.42 0 00-2.4-.2m4-4.1h4.9a8.9 8.9 0 01-2.1 5.5 18.87 18.87 0 00-3.7-1.1 13.69 13.69 0 00.9-4.4m-.1-.6a11.6 11.6 0 00-.8-4.3 23.41 23.41 0 003.8-1.2 9.4 9.4 0 012 5.4l-5 .1zm2.6-5.9a17 17 0 01-3.5 1A15.92 15.92 0 0013 2.9a9.5 9.5 0 015.8 2.9m-7.9-3a17.63 17.63 0 00-2.2 3.8c-1.4-.3-2.6-.7-3.4-.9a9.54 9.54 0 015.6-2.9M5.2 18.2a15.36 15.36 0 013.5-1 16.81 16.81 0 002.2 3.8 8.43 8.43 0 01-5.7-2.8m8 3a15.68 15.68 0 002.1-3.8 22.58 22.58 0 013.4.9 9.86 9.86 0 01-5.5 2.9" transform="translate(-2 -2)"/></symbol><symbol id="locale-in_ID" viewBox="0 0 22.06 8"><path d="M17.92 1.2a.1.1 0 00-.1.1c0 .1.1.1.1 0s.1-.1 0-.1z"/><path d="M17.52 1.2c0 .1.2 0 0 0z"/><path d="M17.72.5c.1 0 0-.1 0 0z"/><path d="M17.82 0h-.1c.1.1.2.1.1 0z"/><path d="M5.12 5.5c0-.1.1-.1.1-.3v-.7c0-.1.1-.1.1-.2s0-.1-.1-.2-.2-.2-.3-.2-.2 0-.2.1-.2.2-.2.1.1-.1.1-.2 0-.1-.1-.1-.1 0-.1-.1.1-.2-.1-.2-.1-.1-.2-.1-.2 0-.2-.1-.1-.1 0-.3l.1-.2a.31.31 0 00-.1-.2h-.2c-.1.1-.3.2-.2.1s.2-.1.2-.2v-.2c.1 0 0-.1 0-.1a.1.1 0 00-.1.1c0 .1-.2 0-.2 0a.35.35 0 00-.1-.2l-.2-.2c-.1 0 0-.1 0-.2a.1.1 0 00-.1.1c0 .1 0 0-.1-.1s-.2-.1-.2 0 .1.2 0 .2 0 0-.1-.1-.1-.3-.2-.3-.1 0-.1-.1-.1-.1-.2-.2a.76.76 0 00-.4-.2c-.1 0-.1-.1-.2-.2s-.1-.3-.2-.4l-.2-.2c-.1 0-.1.1-.2.1h-.4C.42.3.42.3.32.2s-.4-.3-.3 0a.36.36 0 00.2.3l.3.3c0 .1.2.1.2.2s.2 0 .2.1l.1.2a.22.22 0 01.2.2c0 .1 0 .2.2.2s.2.1.3.2a.31.31 0 01.1.2s.1 0 .1.2 0 .3.1.3.2 0 .2.1a.76.76 0 01.2.4c0 .1.1.1.1.2s0 .2.1.2.1.1.1.2 0 .2.1.2.2.2.2.3a.22.22 0 00.2.2.22.22 0 01.2.2c0 .1 0 .1.2.2s.2.2.3.2.3.2.4.3.2.3.2.2 0-.1.1-.1h.2c.1 0 .1-.1.2 0s.1.2.1.1z"/><path d="M1.22 2.1l-.2-.1c-.1 0 0 .1 0 .2l.2.2c.1.1.1 0 .1 0s0-.1-.1-.3z"/><path d="M.42 1.4a.35.35 0 00-.2-.1c-.1 0-.1.1 0 .1s.1 0 .2.1.2.1.1 0c.1 0 0 0-.1-.1z"/><path d="M1.02 1.7c-.1-.1-.2 0 0 0z"/><path d="M1.52 2.7v.2l-.1.1h.1a.1.1 0 01.1-.1c0-.1 0-.2-.1-.2z"/><path d="M1.82 3.2s-.1-.1-.1 0-.1.1 0 .2.1.2.2.2h.2a.35.35 0 01-.1-.2c-.2-.1-.1-.1-.2-.2z"/><path d="M2.42 3.9c-.1 0-.2-.2-.2-.2h-.1c0 .1.1.1.2.1-.1.1 0 .2.1.1-.1.2 0 .2 0 .1z"/><path d="M2.52 4.1v.2s.1.1.1 0a.31.31 0 01-.1-.2z"/><path d="M3.42 5.3c0 .1.1.1 0 0z"/><path d="M4.92 3.6c-.1 0-.1.1 0 .1a.35.35 0 01.2.1.49.49 0 00.1.3c.1.1.3.2.3.1s.1-.1 0-.2-.2-.1-.2-.2 0-.1-.1-.2 0-.1-.1 0 0 0-.1 0h-.1c0-.1 0 0 0 0z"/><path d="M4.32 3c.1-.1.1-.2.2-.1s.1 0 0-.1h-.2V3z"/><path d="M9.22 6.5c-.1 0 0-.1-.2-.1a4.33 4.33 0 00-.5.1c-.2 0-.1-.1-.1-.2s0-.2-.1-.2a.37.37 0 01-.3-.1c-.1-.1-.3 0-.3-.1s-.1-.1-.2 0 0 .2-.2.2h-.5c-.1 0 0-.1-.1-.1s-.2 0-.2-.1a.35.35 0 01-.1-.2c0-.1-.1.1-.2 0a.14.14 0 00-.2 0l-.1-.1h-.1c0 .1 0 .2-.1.1s-.1-.1-.2-.1-.3-.1-.3.1a.1.1 0 01-.1.1c-.1 0-.3.1-.2.2s.1.1.2.1.1-.1.1 0 .2 0 .2.1-.1.2 0 .2h.5c.1 0 .3.2.4.1a.37.37 0 01.3-.1c.1 0 .4 0 .4.1s.2.1.4.2h.4a2.27 2.27 0 01.4.1.35.35 0 00.2.1h.1a.1.1 0 01.1-.1c.1 0 .2 0 .2.1s.1 0 .2.1h.2c0-.1.1 0 .1-.1a.1.1 0 00-.1-.1c.1-.2.1-.2 0-.3.1 0 .1-.1 0 0z"/><path d="M5.92 4.2c.1.1.3.1.3 0s.1 0 .1-.1 0-.1-.1-.2-.1-.1-.2 0l-.1.1z"/><path d="M10.52 3.2c0-.1.2-.1.2-.2s-.1-.4 0-.5l.2-.2c.1-.1 0-.1.1-.1h.2c.1 0 .1 0 .2-.1s0-.1-.1-.1-.3.1-.3 0-.1-.1-.1-.2.1-.1.1-.2-.1-.2-.2-.2-.1-.1-.2-.2 0-.1.1-.1h.2l-.1-.1V.9c-.1 0-.1-.1-.2-.1h-.7c-.1 0 0 .1-.1.2a.37.37 0 00-.1.3.35.35 0 01-.1.2c-.1 0-.1.1-.1.2s0 .1-.1.1-.1.2-.1.2l-.1.1c0 .1-.2.1-.3.1s-.1.1-.2.1a.35.35 0 01-.2-.1h-.3c-.1 0-.1 0-.2.1l-.1.1a.19.19 0 01-.3 0h-.2c-.1 0-.1 0-.1.1h-.1c-.1 0-.1 0-.1-.1s0-.3-.1-.3-.1-.1-.1-.2v-.2a.1.1 0 01-.1.1c-.1.1-.1 0-.1.1s0 .2-.1.2-.1.1-.1.2v.2a.1.1 0 01.1.1c0 .1 0 .3.1.3a.35.35 0 01.1.2c0 .1.1.2.1.1s.2-.1.2 0v.5c0 .1.1.1.1.2s0 .2.1.2h.3s.1.1.1 0a.1.1 0 01.1-.1h.2v.2c0 .1 0 .2.1.1s.1 0 .1-.1.1-.1.1 0 .1.1.1 0a.1.1 0 00.1-.1c0-.1 0-.1.1-.1s.2 0 .2.1 0 .1.1.1h.2c.1 0 .1 0 .1.1s.1 0 .1.1 0 .1.1.1h.3a.1.1 0 00.1-.1c0-.1.2 0 .2 0v.1s.1.1.1 0 0-.1.1-.1.1-.1 0-.1h-.2a.1.1 0 01.1-.1.1.1 0 00.1-.1.1.1 0 00.1-.1c0-.1-.1-.1-.1-.2s-.1-.1 0-.2.2-.1.2-.2.1-.1.1-.2z"/><path d="M13.32 5.4c.1-.1.2-.1.2-.2V5c.1 0 0-.1 0-.1s-.1-.1-.1 0-.1 0-.1 0v-.1s.1-.1.1 0 .1.1.1 0 .1-.1 0-.1h-.1s0 .1-.1 0-.2 0-.2-.1-.1-.1 0-.1.1-.1 0-.2 0-.1-.1-.2-.2-.2-.2-.3-.1-.2 0-.2a.76.76 0 00.4-.2.22.22 0 01.2-.2h.1a.1.1 0 00-.1.1v.2c.1 0 .1-.1.1 0s0 .1.1 0 .1-.1.1 0 .1.1.1 0 0-.2-.1-.2-.1 0-.1-.1.1 0 .1-.1 0-.2-.1-.2h-.4c-.1 0-.2 0-.2.1s-.1.1-.2 0a.1.1 0 00-.2 0 15922690483436.63 15922690483436.63 0 00-.2.2c-.1 0-.1 0-.2-.1s0-.2-.1-.2-.1 0-.1-.1-.1-.4.1-.4a.1.1 0 00.1-.1.1.1 0 01.1.1c0 .1.1 0 .2 0h.1a.14.14 0 01.2 0h.7c.1 0 .1.1.2.1s.2.1.3 0 .1 0 .2-.1l.2-.2.2-.2v-.1c0-.1-.1-.1-.2.1s-.2.3-.3.3h-.4c-.1 0 0 .1-.1 0s-.1-.1-.2-.1 0-.1-.2-.1h-.3c0-.1-.1 0-.1 0s-.1-.1-.2-.1-.1.1-.1.2-.1.1-.2.1-.1.1-.2.2-.2.2-.1.3 0 0 0 .1a.37.37 0 01-.1.3s-.2.2-.1.2v.2c0 .1-.1.1-.1.2s0 .1-.1.2a.1.1 0 00-.1.1c.1 0 .1.1 0 .2v.2c0 .1.1-.1.2 0s.1 0 .1.1-.1.1 0 .2.1.1.1.2 0 .1-.1.2-.1.2-.1.3.1.1.2.1.2.1.2 0a.1.1 0 01.1-.1s.1-.1 0-.1a.1.1 0 01-.1-.1c0-.1.1-.1.1-.2v-.2c0-.1-.1 0 0-.1v-.1a.35.35 0 00.1-.2v-.1l-.1-.1a.1.1 0 01.1-.1.1.1 0 00.1-.1c.1 0 .2 0 .2.1v.2c-.1.1-.1.1 0 .2s.1.2.2.2a.1.1 0 01.1.1s0 .2.1.2.2 0 .2-.1a.1.1 0 01.1-.1.35.35 0 01.1.2c0 .1-.2.3.1.4-.2 0-.3-.1-.2-.1z"/><path d="M10.02 6.8c0 .1-.1.2 0 .2h.2a.1.1 0 01.1-.1v-.1s-.2-.2-.3 0z"/><path d="M10.72 6.9s0-.1-.2-.1c0 0-.2 0-.2.1a.1.1 0 01-.1.1.1.1 0 00.1.1.14.14 0 00.2 0c.1 0 .1-.1.2 0s.1 0 .1-.1 0-.1-.1-.1z"/><path d="M11.42 7v-.1c0-.1 0-.1-.1-.1h-.2c-.1-.1-.2-.2-.2 0 0 0-.1 0 0 .1l.1.1c0 .1 0 .1.1.1h.2c-.1-.1 0-.1.1-.1z"/><path d="M12.32 7.5c-.1 0-.1-.1-.2-.2s-.1 0-.2-.1-.1-.1-.2 0-.2-.1-.2 0-.1 0-.1.1 0 0 .1.1 0 .1.1.1.1 0 .2.1a.31.31 0 01.2.1c.1.1.1.1.2.1s.1 0 .1-.1.1-.1 0-.2z"/><path d="M12.92 6.8c-.1 0 0-.1-.1-.1s-.1.1-.2.1-.2 0-.2-.1-.1-.1-.2-.1-.4 0-.4.1 0 .1-.1 0-.2-.1-.1 0 .1.1.2.1.2.2.3.2h.8c.1 0 .2 0 .1-.1a.1.1 0 00-.1-.1z"/><path d="M13.72 6.8l.1.1v-.1c.1-.1.1-.1-.1 0 0-.1-.1-.1-.2-.1h-.2c-.1 0-.1-.2-.2-.1a.1.1 0 01-.1.1c-.1.1-.1.1 0 .1s.2 0 .2-.1.1-.1.2-.1a.1.1 0 00.1.1z"/><path d="M14.82 6.6s.2.1.2 0 .1 0 .1-.1a.1.1 0 00-.1-.1c-.1 0-.1-.1-.2 0l-.1.1a.1.1 0 00.1.1z"/><path d="M13.42 7.8a.1.1 0 01-.1.1c-.1 0 0 .1.1.1a.1.1 0 00.1-.1c.1 0 .1 0 .1-.1s-.2-.1-.2 0z"/><path d="M12.82 7.7a.1.1 0 00-.1.1c0 .1 0 .2.1.1s.1-.3 0-.2z"/><path d="M15.32 6.7c-.1 0-.2-.1-.3 0s-.1.1-.3 0-.2 0-.3.1l-.3.3c-.1.1-.1.1-.2.1a.49.49 0 00-.3.1.14.14 0 000 .2s0 .2.1.2.1-.1.2-.1.2-.1.3-.2l.3-.3c.1 0 .1-.1.3-.1s.1-.1.3-.1.2-.1.3-.1a.1.1 0 00-.1-.1z"/><path d="M15.22.6c-.1 0-.1-.1 0 0-.1.2-.2.2-.2.3s.1.1.1 0 0-.1.1-.2.1-.1 0-.1z"/><path d="M15.52 2.1v.4s.1 0 .1.2 0 .1.1.2.1.2.2.2.1 0 .1-.1-.2-.2-.1-.3 0-.2.1-.2.1 0 .2.1.2 0 .1-.1a.1.1 0 00-.1-.1.1.1 0 01-.1-.1c0-.1 0-.1.1-.1s.1 0 .1-.1 0-.1-.1-.2-.1 0-.1.1a.1.1 0 01-.1.1v-.2c0-.2 0-.5-.1-.2a.35.35 0 00-.1.2c0 .1-.3.2-.3.2z"/><path d="M15.92 1.5a.35.35 0 00-.1.2c0 .1.1.2.1.1a.31.31 0 00.1-.2c.1-.1 0-.3-.1-.1z"/><path d="M14.82 3.7c.1 0 0-.1-.1-.1s-.2.1-.3 0-.1-.1-.3-.1h-.2c0 .1 0 .2.1.2s.1-.1.2-.1h.4c0 .1 0 .2.1.2v.1a.1.1 0 00.1-.1s-.1-.1 0-.1z"/><path d="M15.02 4.2s-.2 0-.2.1 0 .1.1.2.1.2.2.2a.1.1 0 00.1-.1c.1 0 .1 0 .1-.1s0-.1-.1-.2 0-.1-.2-.1z"/><path d="M15.82 3.5c0-.1-.1-.1 0 0-.1-.1-.1-.2-.2-.1a.1.1 0 00-.1.1.1.1 0 01.1.1c.1.1.1 0 .1 0s.1 0 .1-.1z"/><path d="M15.32 3c.1.1.1.1.2.1s.1 0 .1-.1a.22.22 0 00-.2-.2s-.2.1-.1.2z"/><path d="M17.12 4.4c-.1-.1 0-.2-.2-.2s-.2 0-.3-.1a.31.31 0 00-.2-.1.35.35 0 01-.2.1h-.4a.44.44 0 00-.1.3c0 .2 0 .1.1.1s.1.1.1 0-.1 0-.1-.1 0-.1.1-.1 0 .1.1.1a.14.14 0 00.2 0h.4c0-.1 0-.1.1 0s0 .1.1.1a.1.1 0 01.1.1h.1a.1.1 0 00.1.1s.1 0 0-.1z"/><path d="M16.62 3.7h.2c.1 0 .1 0 .2-.1s0-.1-.1-.1-.1-.1-.1 0-.3.2-.2.2z"/><path d="M17.32 2.8c-.2-.1-.2-.1-.3-.1s-.2 0-.2.1 0 .1.1.1.1 0 .1.1.1.1.1 0 .1-.1.2-.2z"/><path d="M19.92 3.5h-.2c-.1 0 0-.1-.2-.1h-.2c-.1-.1-.1-.1-.2 0s-.1.1 0 .1h.2c.1 0 .1.1.2.1s.1 0 .2.1.2.1.2 0 .2-.1 0-.2z"/><path d="M19.52 3.2a.1.1 0 00.1.1c.1 0 .1 0 .1-.1s0-.1-.3-.2c0 0-.2 0-.1.1s.1.1.2.1z"/><path d="M19.02 3.1c.1.2.1.1 0 0z"/><path d="M18.92 5.4c-.1 0 0-.3-.2-.1l-.1.1c0 .1.1.1 0 .1a.35.35 0 00-.1.2V6a.1.1 0 00.1-.1c0-.1.1 0 .1-.1s.1 0 .1-.1c.2-.1.2-.3.1-.3z"/><path d="M17.72 6.1h-.2a.35.35 0 00-.1.2c0 .1-.2.2-.1.2s.1.1.2 0 .2-.1.2-.2-.2-.1 0-.2z"/><path d="M22.02 6.4c0-.2.1-.3 0-.3s-.1-.1 0-.2a.14.14 0 000-.2V4.1h-.1c0-.1 0-.1-.2-.1a.9.9 0 01-.5-.1c-.2-.1-.2-.2-.4-.2s-.1-.1-.3-.1a.37.37 0 00-.3.1c-.1.1 0 .2-.2.2a.37.37 0 00-.3.1l-.3.3c0 .1 0 .2-.2.2s-.2-.1-.3-.2 0-.2-.1-.2-.2 0-.2-.2-.1-.2 0-.3.1-.1 0-.2 0-.2-.2-.2-.2 0-.3-.1a.44.44 0 00-.5-.1.35.35 0 01-.2.1c-.1 0-.2 0-.2.1v.1c-.1-.1-.1-.1-.2-.1s-.1-.1-.2 0 0 .1.1.1.1 0 .1.1 0 .1.1.1-.1.1.1.1.4 0 .4.1 0 .2.1.2h.4a.31.31 0 00.2-.1.14.14 0 01.2 0 .1.1 0 01-.1.1h-.3c-.1 0-.1 0-.2.1s-.1.1-.2 0-.2-.1-.2 0 0 .1.1.1.1.1.2.2.1.1.1.2v.2c.1 0 .3 0 .3-.1s.1-.2.1-.1.1.1.2.1 0 .1.2.1.2 0 .2.1.1.1.3.1.2-.1.4.1l.4.2a.55.55 0 01.5.2c.2.2 0 .3.3.5a.37.37 0 01.1.3c0 .1 0 .2-.1.2s-.3 0-.3.2-.1.2-.1.3 0 .1.2.1h.4a.35.35 0 01.2-.1.1.1 0 01.1.1c.1 0 .2-.1.3 0l.3.3.1.1z"/><path d="M8.82 6.1h-.3c-.1 0-.1 0-.1.1a.1.1 0 00.1.1h.1s.1.1.1 0 0-.1.1-.1a.1.1 0 00.1-.1z"/><path d="M9.72 6c0 .1.1 0 0 0z"/><path d="M9.72 6.6h-.1a.1.1 0 01-.1.1c-.1 0-.1 0-.1.1s.1 0 .1.1a.1.1 0 00.2 0c0-.1 0-.1.1-.1s.1 0 .1-.1c-.1.1-.1.1-.2-.1z"/><path d="M12.12 5.5s-.1.2 0 .2.1 0 .1-.1 0-.2-.1-.1z"/><path d="M14.22 6.7s-.2-.1-.2 0 0 .2.2.1 0 0 0-.1c.2 0 .2-.1 0 0z"/><path d="M15.62 6.6s-.1.1 0 .1.2 0 0-.1z"/><path d="M16.52 6.5c0 .1.1.1 0 0z"/><path d="M17.22 6.6s-.2 0-.1.1a.1.1 0 00.1.1c0-.1.2-.1 0-.2z"/></symbol><symbol id="locale-pt_BR" viewBox="0 0 19.04 20.1"><path d="M18.94 6a1.23 1.23 0 01-.2-.7.45.45 0 00-.3-.3 1 1 0 01-.9-.3 4.21 4.21 0 00-1.3-.7c-.3 0-.4.2-.5.1l-.2-.2c-.1-.1-.4-.2-.5-.2s-.3 0-.3.1l-.1.1c0 .1-.2.1-.2 0s.3-.1.1-.3-.1-.3-.3-.3-.4-.2-.5-.2-.2-.2-.3-.1-.5-.1-.6-.1-.2.1-.2.3l-.4.4c-.1.1-.2-.2 0-.2s.3-.3.3-.4a.19.19 0 00-.1-.3c-.2 0-.3 0-.3.1s-.1-.1-.1-.1-.1-.1-.1-.2-.2-.1-.2.1-.2.1-.2.3 0 .3-.1.3-.1-.1-.1-.2-.2-.2 0-.3.3-.1.4-.3.1-.3.2-.4a.37.37 0 00-.1-.3c-.1 0-.3 0-.3-.3a3.1 3.1 0 00-.2-.7c0-.1 0-.2-.2-.2s-.1.2-.2.3a1.07 1.07 0 00-.3.5c-.1.3-.4.2-.5.2s-.2.1-.4.1-.3-.1-.3-.2-.2 0-.2 0h-.2c-.1 0-.1.1-.1.2s-.3 0-.4 0h-.2c-.1 0-.2 0-.2.1s-.1.1-.2 0a.31.31 0 00-.2.1c-.2.3-.3.2-.4.2l-.2-.2c-.1-.1-.1-.1-.1-.2s0-.1-.1-.2v-.3c0-.1.1-.1 0-.2s0-.1.1-.2-.1-.1-.1-.2 0-.1-.1-.1 0-.1 0-.2 0-.2-.2-.2 0 .1-.1.2a.1.1 0 01-.1.1c0 .1-.1 0-.2.1s-.1.1-.2.1-.1.1-.3.1h-.2c-.1 0 0 .1 0 .2s0 .1-.1.1 0 0-.1-.1-.1 0-.2 0-.1 0-.2-.1-.1-.1-.2-.1-.1 0-.1.1.1.1.2.2 0 .3 0 .3a.35.35 0 01.1.2c0 .1 0 .1.2.1s.1.1.1.1-.1.1-.2.1-.1.1-.1.2a.37.37 0 01-.3.1c-.1 0-.1.1-.2.1a.1.1 0 00-.1.1c-.1 0-.1 0-.2-.1s-.1 0-.1.1-.1 0-.2 0-.1 0-.1-.1h-.3c-.1 0 0-.3 0-.3l-.1-.1h-.1c-.1 0-.1 0-.2.1s-.1.1-.2 0-.1-.1-.1 0 0 .1-.2.1-.6-.1-.5.1 0 .3.1.3.3 0 .3.1.1.1 0 .1-.4 0-.4.1V3c0-.2.2-.1.2 0v.4a.35.35 0 01-.1.2v.2c0 .1-.1.3-.1.4s-.1.2-.1.3 0 .2-.1.2-.2 0-.2-.1h-.2c.1.2 0 .2-.1.2a.37.37 0 00-.3.1c-.2.1-.3.2-.4.2s-.1.1-.1.2a.37.37 0 01-.1.3v.1c0 .1.1.1 0 .2s-.1 0-.2.1l-.1.1c0 .1.1.1 0 .1s-.2.1-.1.2l.1.1c.1.1.1.2.2.3a.31.31 0 01.1.2c.1 0 .1 0 .1.1s0 .1.1.1.3 0 .3.1 0 .2.1.2h.3c.1 0 .2 0 .2-.1s.2-.2.2-.1-.1.1-.1.2v.3c0 .1 0 .2.1.2s.1.1.2 0 .1-.1.2 0h.5c0 .1.2.1.2 0s.1-.1.2-.2.2 0 .2-.1.1-.1.2-.1.1.1.1 0 .2-.1.2-.1a.35.35 0 01.2-.1h.3c0 .1.1.1 0 .2s0 .1 0 .2v.5c.1.1.1.1.1.2s.2.1.2.1.1.1.2.1.1.1.2.1h.3s.2 0 .2.1.1.1.2.1.3.1.3.2.2.1.3.1h.3a.35.35 0 01.1.2v.2c.1.1 0 .1 0 .1s.1.1 0 .2-.1.1 0 .1.1 0 .1.1v.4h.9v.3c0 .1 0 .1.1.2l.1.1a.35.35 0 01.2.1v.1a.35.35 0 01.1.2c0 .1-.1.1-.1.2v.2a.1.1 0 01-.1.1c-.1 0-.1.2-.1.2a.14.14 0 010 .2c-.1.1-.1.1-.1.2s.1.1.1.2v.6c0 .1 0 .1.1.2a.37.37 0 01.3.1h.3c0-.1.1-.1.2 0s.2 0 .2.2.1.2.1.4 0 .4.1.4.2.1.3 0 .1-.1.2-.1.1.1.1.2 0 .1-.1.3-.1.2-.1.3v.1h.2c.1 0 .2 0 .2.1s0 .1.1.2a.14.14 0 010 .2c-.1.1-.1.1-.1.2s.1.2-.2.3a1.07 1.07 0 00-.5.3c-.1.1-.2.1-.3.2s-.1.2-.2.3-.2.1-.3.3a.77.77 0 01-.2.3l-.2.2h.1c.2-.1.1-.1.2-.1s.2 0 .2.1.1 0 .2.2.1.3.2.2.1-.1.1 0 .1.2.3.2.2 0 .2.1.1.1.2.2.2 0 .2.1a.6.6 0 00.1.4v.3a.35.35 0 00.1.2c.2-.2.4-.3.4-.5s.1-.3.1-.4 0-.3.1-.4.3-.2.4-.4 0-.2.1-.2.2 0 .2.1-.1.2-.2.3-.1.2-.2.3-.3.2-.3.3.1 0 .2-.1.5-.4.6-.5.2-.3.2-.5.3-.4.3-.5.4-.3.4-.5.1-.2.1-.4c0-.4-.1-.5 0-.7s0-.2.1-.3.1-.1.1-.2 0-.1.1-.1.1-.1.2-.2.3-.1.4-.3 0-.1.2-.1.3-.1.3-.2.2 0 .3 0 0-.2.1-.2a.37.37 0 00.3-.1c.1-.1.3-.2.2-.1s0 .1.2.1.7.1.7-.1a.52.52 0 01.2-.4c.1-.1-.1-.3.1-.5a.54.54 0 00.3-.4c.1-.2.1-.3.2-.3s.1-.1.1-.3 0-.5.2-.6.1-.5.1-.6.2-.2.1-.5a1.34 1.34 0 01-.1-.5c0-.2.1-.2.1-.3s-.1-.2 0-.3a.49.49 0 00.1-.3s-.1-.1 0-.1a.4.4 0 00.4-.2 3.33 3.33 0 01.3-.6c.1-.1.1-.3.3-.3s.3-.3.5-.5a1.23 1.23 0 00.4-.8c-.1-.3.1-.4-.1-.7z"/></symbol><symbol id="locale-tr_TR" viewBox="0 0 18.93 7.34"><path d="M18.63 2.77c-.1 0-.3-.2-.4-.3s-.1-.5-.1-.7-.2-.2-.2-.4-.2-.3-.3-.3-.2-.2-.3-.3a.45.45 0 00-.5 0c-.1.1-.5 0-.8 0a.35.35 0 01-.2-.1c-.1.1-.3.2-.4.3s-.6.1-.9.3a.82.82 0 01-.7-.1c-.2-.1-.3 0-.4.1s-.3 0-.6.1-.5 0-.6-.2-.3 0-.5 0-.3 0-.4-.2-.4-.1-.5-.1-.3 0-.3-.2-.4-.2-.7-.2-.3 0-.4-.2-1-.1-1.5-.1-.3.1-.7.1-.4.2-.9.4a4.35 4.35 0 00-.7.4c-.2.2-.7 0-.9-.1s-.4.2-.6 0-.3 0-.6 0-.2.4-.2.7-.3.2-.5.3a1.06 1.06 0 01-.8-.1c-.2-.1-.2 0-.3.1h-.6a.6.6 0 00-.6.3c-.1.2-.3.5-.2.7s0 .2-.2.4 0 .1.3.2.3 0 .4-.1-.2-.3-.2-.4.2-.2.4-.1 0 .2-.1.3 0 .2.2.3 0 .1-.2.2 0 .1.1.2a.19.19 0 01-.1.3c-.1 0-.2 0-.2-.1a.22.22 0 00-.2-.2q-.15 0 0 .3c0 .2-.2.1-.2 0s-.1-.2-.3-.1.1.2.1.3.2.2.3.1.3.2.3.1h.3c.4.1.5.2.5.3s-.2.1-.3.1-.2 0-.2.1.1.1.3.1.2.1.1.3.3 0 .4.1-.1.1-.2.1-.2.4-.1.3a.76.76 0 01.4-.2c.1 0 .4 0 .5.2s-.4.1-.6.1-.2.1-.3.2.3.1.4-.1.3-.1.3 0 .3 0 .3-.1.3 0 .5 0 .2.2.3.4.2.1.4.2a.94.94 0 00.9-.1.65.65 0 00.2-.5c0-.2.2-.1.5-.1s.4.2.7.3.7.6.8.7.6-.1 1.1-.2.5-.3.7-.5.6 0 .8.1.4 0 .6-.2.3-.2.3-.1 0 .2-.2.4 0 .4-.1.6v.1h.1a.25.25 0 00.4-.1c0-.2 0-.3.2-.3s.3 0 .2-.1a.37.37 0 01-.1-.3.23.23 0 01.4-.1c.2.1.1.2.3.2s.2-.2.3-.2.3-.1.4-.1.4-.1.6.1.4.1.6.1a2 2 0 00.8-.1 2.19 2.19 0 01.5-.3c.2-.1.4-.3.5-.2a.6.6 0 00.4.1c.1 0 .3-.1.4-.1s.3 0 .3-.1.1-.1.3.2c.1-.1.2-.1.2-.2s.1-.2.3-.2.4 0 .4.1a.37.37 0 00.3.1c.1 0 .3-.1.4 0s.2.3.3.3.3-.1.3-.2a.35.35 0 00.1-.2l-.1-.1-.2-.2c0-.2-.3-.2-.3-.4s.3-.2.2-.4v-.4c0-.2 0-.1-.1-.3s-.3-.5 0-.5.2-.1.3-.2.1-.1.1-.2-.1-.2-.2-.2z"/><path d="M2.73.67a1 1 0 01-.4-.5h-.2a.76.76 0 01-.4-.1c-.2-.1-.3-.1-.4 0s-.1 0-.3 0-.2.1-.3.3a.1.1 0 00.1.1c.1 0 .1.1.1.2s0 .3-.1.3-.1.1-.1.2.1.2 0 .3-.3 0-.3.1a.76.76 0 00.4.2c.2.1.5.1.6-.1s.5-.2.8-.4.5 0 .8 0 .3 0 .4-.2-.4-.3-.7-.4z"/><path d="M2.33 6.67a.1.1 0 01-.1.1.22.22 0 00-.2.2c0 .1 0 .1-.1.2s-.1.1.1.1.1-.2.2-.2.1-.1.1-.2.1-.1.1-.2-.1-.2-.1 0z"/><path d="M.13 2.17s-.1-.1-.1 0 0 .2.1.2.1 0 .1-.1.1 0 .1-.1z"/></symbol><symbol id="locale-vi_VN" viewBox="0 0 9.95 20.91"><path d="M6.35 20.8v-.4a.29.29 0 00-.3.3c0 .4.3.1.3.1z"/><path d="M5.45 20.9l.2-.4s-.4-.1-.3.1.1.3.1.3z"/><path d="M1.85 19.6l-.1.2s.2.4.4.1-.1-.3-.1-.3z"/><path d="M3.25 19.2l-.1-.2-.3.1s0 .3.2.3.2-.2.2-.2z"/><path d="M7.15 2.5a1.23 1.23 0 01-.5-.2l-.5-.5c-.2-.1-.2-.4-.2-.5a.22.22 0 01.2-.2c.1-.1 0-.3-.1-.4s-.5 0-.8-.1-.3-.1-.5-.1-.3-.1-.4-.3-.2-.2-.3-.2-.1.1-.3.1-.1.1-.2.5-.4.1-.6.1-.2.1-.3.1-.2.2-.3.2a.22.22 0 01-.2-.2c0-.1-.2-.1-.2 0s-.2 0-.3-.1-.3.3-.3.3-.1.2-.3.2-.2 0-.2-.2S.65.8.55.8s-.3.2-.4.3q-.3.45 0 .6a1 1 0 01.5.4c.1.2 0 .2.2.2s.3.1.3.2-.1.4-.2.4 0 .2.2.3.1.5.4.5.6.2.6 0 .1-.2.3-.2.4-.1.5.1a.76.76 0 01.2.4c0 .1-.1.2 0 .3s.2.2.4.2.3.2.2.3-.3.1-.3.3a.32.32 0 01-.3.3c-.1 0-.6-.1-.6 0s-.5.3-.1.5.4.3.7.4.4.3.5.3.4 0 .4.2-.1.4.2.5.4.2.4.4a.55.55 0 00.3.5c.2.1.6.5.8.6a2.19 2.19 0 01.3.5c.1.2.1.4.3.4s.2.2.4.3.2.2.3.2.3.2.2.3-.3 0-.3.2-.1.3.1.3a1.38 1.38 0 01.4.3c.1.1.2.3 0 .4s-.2.2-.1.3c0 .1 0 .2-.2.3a.6.6 0 01-.1.4c-.1.3-.1.4.1.5s.1.4.2.5.1.6.1.9a.71.71 0 01-.3.6c-.2.2-.4.3-.5.5s-.1.2-.3.2-.2.2-.4.2-.1.4-.3.4-.2-.1-.3-.2-.1.1-.3.2-.2.1-.2.3.2.1.2.4.3.1.4.3 0 .2-.1.4-.3 0-.4-.2-.2-.1-.7-.1-.4.2-.4.4-.1.3-.5.2c-.2 0-.3 0-.4.1a.37.37 0 00.3.1.71.71 0 01.6.3c.1.2.3.2.1.3s-.1 1.1-.2 1.6.4.1.6-.2a.72.72 0 01.6-.4c.2 0 .4-.2.5-.6s.2 0 .5 0 0-.6.1-.7.3-.1.2-.2-.1-.4-.1-.5.4 0 .7.1.6-.1.9-.2a8.11 8.11 0 01.8-.6c.5-.2.5-.5.8-.6s.2-.7.2-1 .1-.5.2-.5.2-.2.2-.4-.2-.3-.2-.4.1-1 .1-1.5-.5-.9-.6-1.3-.2-.4-.5-.7-.4-.3-.4-.6-.3-.4-.7-.6a3.51 3.51 0 01-1-.8 2.51 2.51 0 00-.8-.7c-.4-.2-.2-.4-.2-.6s-.2-.4-.5-.5-.3-.5-.5-.6 0-.6.1-.6.2-.4.2-.6.2-.4.5-.5.3-.3.6-.6.1-.4.2-.7.6-.1.9-.1.2-.5.5-.5a1 1 0 00.4-.3.37.37 0 01-.3-.1c-.2-.1-.4 0-.6 0z"/></symbol><symbol id="locale-zh_CN" viewBox="0 0 20.6 14.3"><path d="M15.7 12.6l.1.1v.2l.1-.1v-.2l.1-.2.1-.2v-.1a.35.35 0 01.1-.2v-.1a.1.1 0 00-.1-.1H16l-.1.1-.1.1-.1.1v.1c0 .1 0 0-.1.1l-.1.1v.3c.1-.1.1 0 .2 0z"/><path d="M12.4 13.8c.1-.1.2-.2.1-.3h-.4c-.1 0-.1.1-.2.1v.1l-.1.1-.1.1v.3c0 .1.1.1.2.1h.2a.22.22 0 00.2-.2.37.37 0 00.1-.3c-.1.1 0 .1 0 0z"/><path d="M13.5 12.7c-.1.1 0 .1 0 .1h.2c.1-.1 0-.1-.2-.1z"/><path d="M17.1 5.9a.35.35 0 00.2-.1.1.1 0 00.1-.1.1.1 0 01.1-.1.35.35 0 01.2-.1c.1 0 .1-.1.1-.2s0-.1.1-.1a2828449.12 2828449.12 0 00.2.2h.2v-.2a.1.1 0 01.1-.1.37.37 0 00.3-.1c.1-.1 0-.1.1-.1s.1 0 .1-.1v-.2c.1 0 .1 0 .1.1v.1h.1c.1 0 .1 0 .1-.1s.1 0 .1-.1V4s-.1-.1 0-.1.1 0 .2-.1a.1.1 0 00.1-.1c0-.1.1 0 .1 0s.1.1.2.1.1 0 .1-.1 0-.1.1-.1.1-.1.1-.2 0-.1.1-.1v-.2c0-.1.1-.1.1-.2s0-.1.1-.1a.1.1 0 00.1-.1v-.1c-.1 0 0-.1 0-.1v-.1h-.2c-.1 0 0 .1-.1.1s-.1 0-.1.1-.1 0-.2 0-.1.1-.2.1h-.2c-.1 0-.1-.1-.1 0s-.1 0-.1 0a.1.1 0 00-.1-.1c-.1 0 0-.1 0-.1v-.2c0-.1-.1 0-.2-.1S19 2.1 19 2s-.1-.1-.2 0-.1-.1-.2-.1h-.1c0 .1-.1 0-.1 0a.35.35 0 00-.2-.1v-.2c0-.1 0-.1-.1-.1v-.1l-.1-.1v-.2a.1.1 0 00-.1-.1c-.1-.1 0-.2-.1-.2a.1.1 0 00-.1-.1.1.1 0 00-.1-.1.1.1 0 01-.1-.1h-.4s0-.4-.1-.4-.1-.1-.2-.1h-.6c0 .1 0 .1-.1.1H16c-.1 0 0 0-.1.1l-.2.2c-.1.1-.1 0-.1.1h.1a.1.1 0 01.1.1v.2c0 .1-.1.1-.2.1s-.1.1-.1.2-.1.1-.1.2a.1.1 0 01-.1.1c-.1 0-.1.1 0 .1s.1.1 0 .1l-.1.1a.1.1 0 00-.1.1c-.1 0-.1.1-.2.1h-.4c-.1.1-.1.2-.2.3-.1-.1 0-.1-.1 0s0 .1 0 .2 0 .1-.1.1 0 .1.1.2.1 0 .1 0h.3a.1.1 0 01.1.1.1.1 0 00.1-.1h.2l.2.1c0 .1.2.2.3.2a.1.1 0 01.1.1h-.5c-.1 0-.1.1-.2.1s-.1.1-.3.1-.2.1-.2.2-.1.1-.2.2-.3 0-.4 0-.1.2-.2.2-.1.1-.2.1h-.2c-.1 0-.1 0-.2-.1s-.1 0-.2 0-.1.2-.1.2a.1.1 0 01-.1.1.35.35 0 01.1.2c0 .1.1.1 0 .1a.35.35 0 01-.2.1c-.1 0-.1.1-.2.2s-.1.1-.2.1a.35.35 0 00-.2.1h-.6a.37.37 0 00-.3.1c-.1.1-.2 0-.3 0a.1.1 0 00-.1.1.1.1 0 00-.1.1c-.1.1-.1 0-.2-.1a.14.14 0 00-.2 0h-.2a.1.1 0 01-.1-.1h-.2c-.1 0-.1 0-.2-.1s-.3 0-.4-.1-.1 0-.2 0H7.7c-.1 0-.1 0-.2-.1a.1.1 0 00-.1-.1c-.1-.1-.2-.1-.2-.2v-.1c-.1 0 0-.1 0-.1s-.1-.1-.2-.1a.35.35 0 01-.2-.1.1.1 0 01-.1-.1c-.1 0-.1 0-.1-.1s-.2 0-.2 0h-.7a.1.1 0 01-.1-.1v-.1a.31.31 0 01.1-.2c.1-.1 0-.1 0-.1v-.2c-.1 0 0-.1-.1-.1s-.2-.2-.2-.3 0-.1-.1-.1l-.1-.1h-.3c-.1 0-.1-.1-.1-.2l-.1-.1a.1.1 0 01-.1-.1l-.1-.1V2h-.2c-.2.1-.1.1-.1.2s-.2.1-.3.1a.22.22 0 00-.2.2v.3c0 .1 0 .1-.1.1a.1.1 0 00-.1.1h-.3c-.1 0-.1 0-.2-.1s-.1 0-.1.1a.31.31 0 01-.1.2c-.1.1 0 .1-.1.1s-.1.2-.1.3a.1.1 0 00.1.1c.1 0 .1 0 0 .1h-.2c-.1 0-.1-.1-.2-.1a.1.1 0 00-.1.1c0 .1-.2 0-.2 0a.31.31 0 00-.2.1c0 .1 0 .1.1.1s0 .1.1.2 0 .1.1.2 0 .1.1.2v.1a.1.1 0 01-.1.1c0 .1 0 0-.1.1s-.1.1-.2.1-.3.1-.3.2-.3.1-.4.1-.2 0-.2.2-.1.1-.2.1H.6a.1.1 0 01-.1-.1c0-.1-.1-.1-.1 0H.3a.1.1 0 00-.1.1c0 .1-.1.1-.2.1V6c0 .1.1 0 .1 0h.2c.1 0 .1.1.1.2v.2c0 .1 0 .1-.1.1h.2l.1.1c.1 0 .1 0 .1.1l.1.1s-.1.1 0 .1a.1.1 0 00.1.1H1c0 .1 0 .1.1.1h.3a.1.1 0 01.1-.1c.1 0 .1 0 .1-.1h.1a.31.31 0 01.2.1.1.1 0 00.1.1c.1 0 .1 0 .1.1s-.1.1 0 .1 0 .1 0 .2a3.33 3.33 0 01-.3.6l-.1.2c-.1 0-.1.1-.1 0s-.1-.1-.1 0-.1.1 0 .1.1.1 0 .1 0 .1.1.1l.1.1v.1s.1.1 0 .1a.1.1 0 00-.1.1.1.1 0 01-.1.1V9h-.1s-.1 0 0 .1l.1.1c.1.1 0 .3.1.3h.1a.1.1 0 00.1.1h.1a.1.1 0 00.1.1c.1 0 .1 0 .1.1s.1 0 .1.1h.2v-.1l.1-.1h.2a.1.1 0 00.1.1h.1s0 .3.1.3.1 0 .1.1l.1.1h.2l.1.1c.1 0 .1 0 .1.1a.1.1 0 00.1.1h.2a.1.1 0 00.1.1c.1 0 .1.1.1 0s.1-.1.1 0l.1.1h.1a.1.1 0 01.1-.1h.2v.2h.1c0-.1 0-.1.1-.1a.1.1 0 01.1-.1l.1-.1h.2l.1.1h.3c.1 0 0 0 .1.1v.1h.3c0-.1 0-.1.1-.1s.1 0 .1-.1 0-.1.1-.1.1 0 .2-.1a.1.1 0 01.1-.1s.1-.3.2-.3a.1.1 0 00.1.1h.2v-.1a.1.1 0 01.1-.1h.1a.1.1 0 01.1.1v.1a.1.1 0 01.1.1v.1s-.1.1 0 .1H8l.1-.1s.1-.1.1 0 0 .1.1.1v.1a.1.1 0 00.1.1.1.1 0 01.1.1v.5a.1.1 0 01-.1.1c-.1 0-.1 0-.1.1a.1.1 0 01-.1.1.1.1 0 01-.1.1v.3h.4v.3c0 .1 0 .1.1.1h.1a.1.1 0 00-.1.1v.1s-.1.1 0 .1h.3a5307563229101.85 5307563229101.85 0 01.2.2h.3c.1 0 0 0 .1-.1v.1a.1.1 0 00.1.1h.1v-.2a.1.1 0 01-.1-.1v-.2h.1l.1-.1a.1.1 0 01.1.1h.2s0-.1.1 0h.3l.1-.1h.1c.1 0 .1.1.1 0v-.1a.1.1 0 01.2 0 .1.1 0 00.1.1h.3s.1.1 0 .1v.2l.1.1.1.1h.2c.1-.1 0 0 .1 0h.1a.1.1 0 01.1.1.1.1 0 00.1-.1h.1v.1c-.1 0 0 .1 0 .1a.35.35 0 01.1.2c.1.1.1 0 .1 0s0-.1-.1-.1v-.1c0-.1.1-.1.2-.1h.3c.1 0 .1 0 .2-.1s.1 0 .2 0 .1-.1.2-.2h.2l.1-.1h.2c.1 0 .1 0 .1-.1h.1a.1.1 0 00.1-.1h.2c.1 0 0-.1.1-.2l.1-.1c.1 0 .1 0 .2-.1l.1-.1c.1 0 0-.1 0-.1h.1c.1 0 .1 0 .1-.1s.1 0 .2-.1 0-.1.1-.1a.1.1 0 00.1-.1v-.1s.1-.1 0-.1-.1-.1 0-.1a15922689687305.25 15922689687305.25 0 01.2-.2.1.1 0 01.1-.1c0-.1 0-.1.1-.1s.1-.1.2-.1 0-.1 0-.1v-.1s0-.1.1-.1 0-.1 0-.1l.1-.1a.1.1 0 00-.1-.1c-.1 0 0-.1-.1-.1s-.1.1-.2.1-.1-.1 0-.1.1-.1.2-.1.1 0 .2-.1.1-.1 0-.1a.35.35 0 00-.2-.1c-.1 0 0-.1.1-.1s.1.1.2 0-.1-.1-.1-.2-.1-.1-.2-.1 0-.1-.1-.2-.1-.1-.1-.2a.35.35 0 01-.1-.2c0-.1-.1-.1-.2-.1s-.1-.1-.2-.2.1-.1.1-.2.1-.1.2-.2.1-.1.2-.1a.1.1 0 00.1-.1c0-.1.1-.1.2-.1s.1 0 .2-.1.1-.1.1 0 .1-.1.1-.1v-.1h-.2c-.1 0-.2 0-.2-.1s-.2-.1-.2-.1a.22.22 0 00-.2.2.19.19 0 01-.3 0v-.3s-.1-.1-.1 0-.1-.1-.2-.1-.1 0-.2-.1a.14.14 0 010-.2c0-.1.3 0 .4 0s.1-.1.2-.2.2-.1.3-.2.1-.1.2-.1l.2-.2c.1-.1.1.1.2 0s.1 0 .1 0l.1.1a.22.22 0 01-.2.2c-.1.1-.1.1 0 .1s.1 0 0 .1-.1 0-.2.1 0 .1.1 0a.31.31 0 01.2-.1 1.44 1.44 0 00.3-.2.37.37 0 01.3-.1h.2z"/><path d="M17.1 11.9c-.1 0-.1.1 0 0z"/></symbol><symbol id="lock" viewBox="0 0 15.47 20.72"><path d="M6.86 13.13v2.71h1.77v-2.71a1.43 1.43 0 10-1.77 0z"/><path d="M12.9 6.82V5.11C12.84.88 10.06 0 7.74 0S2.63.89 2.58 5.12v1.7H0v11.49l7.74 2.41 7.73-2.42V6.82zm-9 0V5.13c0-1 0-3.77 3.79-3.77 1 0 3.74 0 3.79 3.76v1.7H3.9zM14.34 8v9.5l-6.6 2.07-6.6-2.06V8z"/></symbol><symbol id="megaphone" viewBox="0 0 54.8 30.2"><path d="M46.6 14.3h8.2v1.6h-8.2z"/><path d="M44.806 5.868l6.747-2.788.61 1.48-6.746 2.787z"/><path d="M44.797 24.397l.61-1.48 6.749 2.785-.61 1.48z"/><path d="M0 8.9v12.3h6.1l5.2 1.2.3 1.9a5.34 5.34 0 004 3.8l2.9.7a5.7 5.7 0 001.3.1 5.06 5.06 0 004-1.8l1.1-1.6 18.5 4.7V0L6 8.9zm5.3 10.8H1.5v-9.2h3.8zm17.1 6.7a4.06 4.06 0 01-3.7 1l-2.9-.7c-1.3-.3-2.7-1.5-2.8-2.5l-.2-1.3 10.4 2.5zM6.9 10.3L41.8 2v26.2L6.9 19.9z"/></symbol><symbol id="menu-burger" viewBox="0 0 19 15.8"><path d="M19 3.2H0V0h19v3.2z"/><path d="M19 9.5H0V6.3h19v3.2z"/><path d="M19 15.8H0v-3.1h19v3.1z"/></symbol><symbol id="menu" viewBox="0 0 38 25"><circle class="st0" cx="9.6" cy="12.5" r="3.3"/><circle class="st0" cx="19" cy="12.5" r="3.3"/><circle class="st0" cx="28.5" cy="12.5" r="3.3"/></symbol><symbol id="name_noPBV" viewBox="0 0 80 32"><path fill="#4CB64C" d="M1.1 18.7h4.6v4.8H1.1v-4.8z"/><path fill="#3F454F" d="M11.7 9.8c.4-.5.7-.8 1.5-1.2.7-.3 1.7-.6 2.8-.6.9 0 1.9.2 2.7.6 1.6.8 2 2.2 2 4.6v10.4h-4.4V15c0-1.4 0-1.9-.2-2.3-.3-.8-1.1-1.2-2-1.2-2.4 0-2.4 1.9-2.4 3.8v8.2H7.2V8.4h4.5v1.4z"/><g fill="#3F454F"><path d="M23.6 12.7c.1-1 .2-2.3 1.6-3.4 1.4-1.1 3.2-1.3 5-1.3 1.9 0 6.4.4 6.4 4.4v8.8c0 1.6.1 1.9.4 2.4h-4.4v-1.4C31.5 23 30.2 24 28 24c-3.5 0-5-2.5-5-4.6 0-2.4 1.9-3.8 3.2-4.4 1.2-.5 4.1-1 6-1.4v-.8c-.1-.7-.1-1.9-1.7-1.9-2 0-2.2 1.2-2.4 1.8h-4.5zm5.7 4.5c-.8.3-1.9.7-1.9 1.9 0 .7.6 1.5 1.7 1.5.5 0 1.1-.2 1.5-.5 1.5-.9 1.5-2.3 1.6-3.9l-2.9 1z"/><path d="M43.9 10c.5-.6 1.7-2 4.3-2 2.5 0 3.4.9 4.2 1.8.9-.7 2.1-1.8 4.6-1.8 2.5 0 3.8 1.2 4.2 2.2.4.8.4 1.9.4 3.5v9.9h-4.4v-8c0-.9 0-2-.2-2.6-.4-1.3-1.6-1.4-1.9-1.4-.4 0-1 .1-1.5.5-.8.7-.8 1.5-.8 3.2v8.2h-4.4v-9c0-.7 0-1.6-.4-2.1-.3-.5-1-.8-1.7-.8-.3 0-.8.1-1.2.3-1 .7-1 1.9-1 2.9v8.6h-4.4v-15h4.4V10z"/><path d="M78.7 19.7c-.5.8-1 1.5-1.8 2.3-1.3 1.2-3.3 2.1-5.7 2.1-4.5 0-7.7-2.9-7.7-7.8 0-3.7 1.8-8.4 7.8-8.4.9 0 3.5.1 5.5 2.2s2.1 5.1 2.1 6.8H68c0 1.9 1 3.8 3.5 3.8 2.4 0 3.3-1.6 3.8-2.7l3.4 1.7zm-4.5-5.6c-.1-.6-.2-1.5-.8-2.1-.6-.6-1.4-.8-2.2-.8-1.1 0-1.8.5-2.3 1-.6.7-.8 1.4-.9 2h6.2z"/></g></symbol><symbol id="name-suggest" viewBox="0 0 23.05 24"><path d="M6.5 4.93h13v2h-13z"/><path d="M3.55 4.93h2v2h-2z"/><path d="M6.5 9.19h13v2h-13z"/><path d="M3.55 9.19h2v2h-2z"/><path class="cls-1" d="M6.5 13.44h13v2h-13z"/><path d="M3.55 13.44h2v2h-2z"/><path d="M21.69 0H1.37A1.36 1.36 0 000 1.36V19a1.36 1.36 0 001.36 1.36h2.86L3.69 24l6.93-3.63h11.07A1.36 1.36 0 0023.06 19V1.36A1.36 1.36 0 0021.69 0m.19 19a.19.19 0 01-.19.19H10.33l-5.14 2.7.34-2.7H1.37a.19.19 0 01-.19-.19V1.36a.19.19 0 01.19-.19h20.32a.19.19 0 01.19.19z"/></symbol><symbol id="net_noPBV" viewBox="0 0 80 32"><circle fill="#FFD200" cx="17.6" cy="22.8" r="3.4"/><g fill="currentColor"><path d="M37.4 24.4c0 1-.5 1.5-1.5 1.5h-2.2c-1 0-1.5-.5-1.5-1.5v-8.9c0-1.2-.4-2-1.8-2-1.3 0-2.4.5-2.9.8v10.1c0 1-.5 1.5-1.5 1.5h-2.2c-1 0-1.5-.5-1.5-1.5V11.2c0-1 .5-1.5 1.5-1.5h.8c.7 0 1 .4 1.5 1.2 1.8-1.1 3.8-1.6 5.6-1.6 4.4 0 5.7 2.3 5.7 5.4v9.7z"/><path d="M52 19.6h-8c-.1 2.1 1 2.7 3.5 2.7 2.1 0 2.9-.3 3.6-.5 1.3-.3 2 .5 2 1.5v.6c0 .9-.3 1.4-1.2 1.7-.8.3-2.8.8-5.2.8-5.3 0-7.9-2.7-7.9-8.5s2.6-8.5 7.6-8.5c6.2 0 7.2 4.2 7.1 8.8 0 .8-.5 1.4-1.5 1.4zm-8-3.2h4.6c.3-1.8-.1-3.2-2.1-3.2-1.7 0-2.5 1.1-2.5 3.2z"/><path d="M56.7 7.8c0-.9.4-1.3 1.6-1.6l1.7-.5c1.3-.3 1.8.3 1.8 1.3v2.7h2.5c1 0 1.5.5 1.5 1.5v1.3c0 1-.5 1.5-1.5 1.5h-2.5v6.2c0 1.3.5 2 2.1 2h.3c.7 0 1.4.5 1.4 1.4v1.1c0 .9-.6 1.5-1.3 1.6-.3.1-.8.1-1.5.1-4.6 0-6.2-1.9-6.2-5.7v-6.6h-1.3c-1 0-1.5-.5-1.5-1.5v-.7c0-.8.4-1.3 1.3-1.5l1.5-.4V7.8z"/></g></symbol><symbol id="optimize-secure" viewBox="0 0 58.6 39.4"><path d="M56.6 0H1.8A1.79 1.79 0 000 1.8v37.6h58.6V1.8a2.05 2.05 0 00-2-1.8m.5 38H1.3V8h55.8zM1.3 1.4h55.8v5.2H1.3z"/><path d="M4.4 2.5a1.4 1.4 0 101.4 1.4 1.59 1.59 0 00-1.4-1.4"/><path d="M8.9 2.5a1.4 1.4 0 101.4 1.4 1.43 1.43 0 00-1.4-1.4"/><path d="M13.5 2.5a1.4 1.4 0 101.4 1.4 1.43 1.43 0 00-1.4-1.4"/><path d="M25.6 20l-10-5.8-12.1 9 .5.5 11.7-8.6 9.9 5.9 8.4-9-.4-.4-8 8.4z"/><path d="M6.5 25.2h3.3v8.2H6.5z"/><path d="M22.2 25.2h3.3v8.2h-3.3z"/><path d="M29.6 22.2h3.3v11.3h-3.3z"/><path d="M14.7 20.8H18v12.7h-3.3z"/><path d="M45.6 25.3V28H47v-2.7a1.36 1.36 0 00.6-1.1 1.3 1.3 0 10-2.6 0 1.68 1.68 0 00.6 1.1"/><path d="M51.5 19v-2c-.1-4.3-2.9-5.2-5.2-5.2s-5.2.9-5.2 5.2v2.1h-2.7v11.6l8 2.5 8-2.5V19zm-9.4-2c0-1.1.1-4.3 4.3-4.3 1 0 4.2 0 4.3 4.2V19h-8.5v-2zm11.5 13.2l-7.2 2.3-7.3-2.3V19.7h14.5z"/></symbol><symbol id="paper" viewBox="0 0 24 24"><path d="M17.3 18.7h-11s-.1-.2-.1-.5v-.6h11v.6c-.1.3.1.5.1.5"/><path d="M6.2 14.7h11v1.1h-11z"/><path d="M6.2 12h11v1.1h-11z"/><path d="M6.2 9.2h11v1.1h-11z"/><path d="M6.2 6.1h6v1.1h-6z"/><path d="M15.3 2H2.4s.9 2.4.9 5.4v11.5c0 2.7 1.5 3.1 1.5 3.1h16.7s-1.6-1.1-1.6-3.1V7.7c0-1.2-.9-2-.9-2L15.3 2zm.4 1.8l2.8 2.6s-.7-.2-1.5-.2c-.9-.1-1.6 0-1.6 0l.3-2.4zm4.1 17.4H5.3s-1.1-.3-1.1-2.7V7.3c0-2.4-.6-4.2-.6-4.2h11.1l-.4 4.2s4.8-.4 4.8.4v11.2c0 1.8.7 2.3.7 2.3"/></symbol><symbol id="partners" viewBox="0 0 19 13.23"><path d="M18.9 13.23h-5.4v-4.9c-.1.1-.2.2-.3.2a7.71 7.71 0 01-2.7 1.1c-.2 0-.4.1-.6.1a.82.82 0 01-.9-.8 1 1 0 01.7-.9c.4-.1.7-.1 1-.2a5.34 5.34 0 002.5-1.7 3.34 3.34 0 011.3-1.1 1.85 1.85 0 01.7-.2h2.4a1.7 1.7 0 011.4 1.6v6.4l-.1.4z"/><path d="M5.4 8.33v4.9H0v-6.6a1.73 1.73 0 011.5-1.7h2.4c.6 0 .9.4 1.2.8s.5.6.8.9a3.94 3.94 0 002.5 1.4h.1a1.22 1.22 0 00-.1 1.6 6.72 6.72 0 01-3-1.3"/><path d="M16.3 4.13a2 2 0 01-1.4-2.4c.2-.9.9-1.9 2-1.7a2 2 0 011.4 2.4 2 2 0 01-2 1.7"/><path d="M2.8 4.13a2 2 0 001.4-2.4c-.2-.9-.9-1.9-2-1.7a2 2 0 00-1.4 2.4 2 2 0 002 1.7"/></symbol><symbol id="PbV_horizontal" viewBox="0 0 220.67 36.5"><path d="M7 24.25a3.45 3.45 0 01-2.93 1.36 3.63 3.63 0 01-2.31-.79 3 3 0 01-.37-.37v4.81H0v-12h1.35v1.16A3.68 3.68 0 014.23 17a3.5 3.5 0 011.7.47 4.12 4.12 0 012 3.91A4.74 4.74 0 017 24.25zm-.74-4.34a2.38 2.38 0 00-2.43-1.64 2.42 2.42 0 00-1.28.4 3.11 3.11 0 00-1.2 2.78A3.17 3.17 0 002 23.56a2 2 0 00.84.64 2.47 2.47 0 001.06.25 2.16 2.16 0 002-.93 3.85 3.85 0 00.61-2.21 4.22 4.22 0 00-.23-1.4z" fill="#676767"/><path d="M16.29 24.25a3.69 3.69 0 01-3 1.36 3.91 3.91 0 01-2.81-1.06 4.35 4.35 0 01-1.21-3.21 4.74 4.74 0 01.93-3 3.67 3.67 0 013.12-1.42 4.25 4.25 0 011.62.32 4 4 0 012.3 4 4.86 4.86 0 01-.95 3.01zm-.95-5a1.88 1.88 0 00-.5-.62 2.26 2.26 0 00-1.49-.52c-2.57 0-2.57 2.81-2.57 3.28a4.57 4.57 0 00.07.83 2.42 2.42 0 002.43 2.29 2.26 2.26 0 001.93-1 4.71 4.71 0 00.57-2.17 4.22 4.22 0 00-.44-2.12z" fill="#676767"/><path d="M27.35 25.34h-1.21l-2-6.06-2 6.06H21l-2.83-8.13h1.43l2 6 2-6h1.2l1.92 6 2.12-6h1.45z" fill="#676767"/><path d="M38.3 24.01a3.55 3.55 0 01-3.14 1.6 4 4 0 01-1.7-.32c-1-.43-2.28-1.54-2.28-4.07a4.23 4.23 0 01.91-2.88 3.88 3.88 0 014.3-1.17 3.4 3.4 0 012 1.93 5.85 5.85 0 01.4 2.41h-6.13a3 3 0 001.17 2.63 2.81 2.81 0 001.47.41 1.8 1.8 0 001.36-.5 2.08 2.08 0 00.45-.53 3.33 3.33 0 00.33-.86l1.4.18a6.21 6.21 0 01-.54 1.17zm-1.08-4.26a2.26 2.26 0 00-2.22-1.7c-1.47 0-2.19 1.2-2.31 2.5h4.64a5.32 5.32 0 00-.11-.8z" fill="#676767"/><path d="M43.78 18.61a2 2 0 00-1.64 1.49 4.74 4.74 0 00-.12 1.5v3.74h-1.4v-8.11H42v1.49a2.83 2.83 0 01.75-.93 3.15 3.15 0 012-.66v1.48a3.16 3.16 0 00-.97 0z" fill="#676767"/><path d="M52.69 24.01a3.55 3.55 0 01-3.14 1.6 4.15 4.15 0 01-1.71-.27c-1-.43-2.27-1.54-2.27-4.07a4.24 4.24 0 01.91-2.93 3.87 3.87 0 014.3-1.14 3.4 3.4 0 012 1.93 5.85 5.85 0 01.4 2.41h-6.13a3 3 0 001.17 2.63 2.81 2.81 0 001.47.41 1.8 1.8 0 001.36-.5 2.08 2.08 0 00.45-.53 4.25 4.25 0 00.33-.86l1.4.18a6 6 0 01-.54 1.14zm-1.08-4.26a2.26 2.26 0 00-2.21-1.7c-1.47 0-2.19 1.2-2.32 2.5h4.7a4.38 4.38 0 00-.17-.8z" fill="#676767"/><path d="M61.08 25.34v-1a3.38 3.38 0 01-2.78 1.29 3.3 3.3 0 01-2.74-1.18 5.36 5.36 0 01-.18-6 3.49 3.49 0 012.9-1.45 3.66 3.66 0 012.31.82 3 3 0 01.49.51v-5.15h1.38v12.16zM61 20.21a2.47 2.47 0 00-2.4-2 2.4 2.4 0 00-1.88.85 3.29 3.29 0 00-.72 2.28 3.55 3.55 0 00.62 2.19 2.27 2.27 0 001.92.88 2.33 2.33 0 001.31-.35 3 3 0 001.22-2.72 5.21 5.21 0 00-.1-1.11z" fill="#676767"/><path d="M76.41 24.27a3.18 3.18 0 01-1.27 1 4 4 0 01-1.61.3 3.47 3.47 0 01-1.86-.48 2.68 2.68 0 01-.89-.75v1h-1.4V13.18h1.4v5.16a1.91 1.91 0 01.38-.47 3.33 3.33 0 012.41-.92 3.51 3.51 0 012.74 1.23 4.45 4.45 0 011 3.09 4.87 4.87 0 01-.9 3zm-1-4.78a2.42 2.42 0 00-2.14-1.26 2.33 2.33 0 00-1.79.75 3.1 3.1 0 00-.8 2.34 3.57 3.57 0 00.38 1.79 2.38 2.38 0 002.21 1.34 2.34 2.34 0 001.31-.36 3.24 3.24 0 001.21-2.84 3.52 3.52 0 00-.34-1.8z" fill="#676767"/><path d="M81.87 26.84a11.83 11.83 0 01-.52 1.28 2 2 0 01-2 1.26 4.24 4.24 0 01-1.22-.18v-1.24a2.89 2.89 0 00.88.14 1.32 1.32 0 00.75-.17 2.82 2.82 0 00.87-1.48l.37-1-2.76-8.18h1.47l2 6.45 2.16-6.45h1.43z" fill="#676767"/><path d="M98 13.28h3.25L97 25.45h-3.13l-4.18-12.2h3.25l2.52 8.68z" fill="#676767"/><path d="M102.22 13.28h9v2.36h-6v2.22h5.58v2.32h-5.58v2.9h6.56v2.37h-9.54z" fill="#676767"/><path d="M113.9 13.28h5.49c1.28 0 2.87 0 4 1.25a4.07 4.07 0 011 2.7 3.27 3.27 0 01-2.5 3.37l2.81 4.85h-3.37l-2.41-4.36H117v4.36h-3.06zm3.1 2.28v3.3h2.52a1.63 1.63 0 001.78-1.41 2.17 2.17 0 000-.26c0-1.55-1.12-1.59-1.76-1.62z" fill="#676767"/><path d="M129.71 13.28v12.17h-3V13.28z" fill="#676767"/><path d="M134 21.81a3.75 3.75 0 001.17 1 5 5 0 002.34.58c1.21 0 2.25-.56 2.25-1.41s-1.22-1.12-2.12-1.24c-.68-.09-1.34-.18-2-.31s-3.27-.69-3.27-3.32c0-3.14 2.79-4.06 4.9-4.06a7.36 7.36 0 015.37 2.29l-2.24 1.6a5.29 5.29 0 00-1.21-1 4.25 4.25 0 00-2-.54c-1.21 0-1.82.69-1.82 1.27 0 .94 1 1.08 1.55 1.15a22.48 22.48 0 013.74.73 3 3 0 012.1 3 4.12 4.12 0 01-1 2.59 5.89 5.89 0 01-4.58 1.64 6.5 6.5 0 01-5.56-2.47z" fill="#676767"/><path d="M148.1 13.28v12.17h-3V13.28z" fill="#676767"/><path d="M159.27 24.34a4.84 4.84 0 01-3.6 1.42c-3.4 0-5.48-2.76-5.48-6.36 0-3.91 2.53-6.52 6-6.52a6.47 6.47 0 015.37 2.81l-2.31 1.4a3.19 3.19 0 00-2.83-1.75c-2.32 0-3.2 1.91-3.2 4a4.57 4.57 0 001 3.1 3.21 3.21 0 003.9.42 2.25 2.25 0 001-1.81h-2.74V18.7h5.31v6.75h-2.38z" fill="#676767"/><path d="M164.15 13.28h3l2.63 4.49c1 1.71 1.26 2.27 1.83 3.33l-.14-7.82h2.91v12.17h-3l-2.28-3.87a40.58 40.58 0 01-2.14-3.8l.09 7.67h-2.92z" fill="#676767"/><path d="M217.85 21.79a18.25 18.25 0 11-18.26-18.24 18.24 18.24 0 0118.24 18.24z" transform="translate(0 -3.55)" fill="url(#PbV_horizontal_linear-gradient)"/><path d="M181.36 18.24a18.24 18.24 0 0031.83 12.21 18.24 18.24 0 01-25.76-25.79 18.25 18.25 0 00-6.07 13.58z" fill="#393a39" opacity=".1"/><path d="M214.43 18.24a14.82 14.82 0 11-14.82-14.79 14.83 14.83 0 0114.82 14.82z" fill="#0061a3"/><path d="M214.43 18.24a14.82 14.82 0 00-25.85-9.9 14.82 14.82 0 0120.92 20.93 14.75 14.75 0 004.93-11.03z" fill="#969797" opacity=".1"/><path fill="#fff" d="M206.59 17.49h-6.81l3.3-5.71h6.81l-3.3 5.71z"/><path fill="#fff" d="M196.35 11.78h-6.76l10.02 17.34 3.38-5.85-6.64-11.49z"/><path d="M220.67 7.02a1.53 1.53 0 11-1.58-1.48h.06a1.5 1.5 0 011.52 1.48zm-2.67 0a1.16 1.16 0 001.13 1.19A1.19 1.19 0 10218 6.99zm.91.78h-.34V6.34a2.72 2.72 0 01.57 0 1 1 0 01.51.11.41.41 0 01.15.33.38.38 0 01-.31.34.44.44 0 01.27.36 1 1 0 00.11.37h-.37a1.09 1.09 0 01-.12-.36.26.26 0 00-.3-.24h-.17zm0-.84h.16c.19 0 .35-.06.35-.22s-.1-.22-.32-.22h-.19z" fill="#676767"/></symbol><symbol id="phone" viewBox="0 0 24 24"><path class="st0" d="M21.1 15.4c-1.5-1.2-4-1.9-5.7-1.8-.5.4-1.4 1.6-1.6 2.2-1.1-.3-2.3-1.4-3.4-2.5-1.2-1.2-2.2-2.4-2.5-3.4.5-.3 1.7-1.2 2.2-1.6.1-1.8-.6-4.1-1.8-5.7-1.1-.1-3.6 0-5.3 1-.5 2.2 0 6.7 5 12 5.1 4.9 9.8 5.6 12.1 5.1.9-1.7 1.1-4.2 1-5.3z"/></symbol><symbol id="play" viewBox="0 0 18 18"><path d="M9 0a9.09 9.09 0 00-9 9 9 9 0 0018 0 9 9 0 00-9-9m0 16.5A7.5 7.5 0 1116.5 9 7.49 7.49 0 019 16.5"/><path d="M12.9 9.4c-1.8 1.1-3.7 2.2-5.5 3.3a.56.56 0 01-.9-.5V5.7c0-.5.4-.8.8-.4 1.9 1.1 3.7 2.2 5.5 3.3.6.2.6.6.1.8"/></symbol><symbol id="portal" viewBox="0 0 24 13.4"><path d="M20.9 12.3V1.6A1.41 1.41 0 0019.71 0H4.3a1.47 1.47 0 00-1.2 1.6v10.7H0a2.43 2.43 0 002 1.1h20a2.43 2.43 0 002-1.1zM12 .2a.1.1 0 11-.1.1.1.1 0 01.1-.1zm-.4.1c.1.1 0 .1 0 .1s-.1 0 0-.1zm1.6 12.2h-2.5a.22.22 0 01-.2-.2h2.9a.22.22 0 01-.2.2zm7-.9a.1.1 0 01-.1.1H3.9a.1.1 0 01-.1-.1V1a.1.1 0 01.1-.1h16a.1.1 0 01.1.1v10.6z"/><path d="M11.57 7.7V9h.86V7.7a.7.7 0 10-.86 0z"/><path d="M14.52 4.57V3.7A2.27 2.27 0 0012 1.23 2.27 2.27 0 009.48 3.7v.87H8.21v5.61L12 11.37l3.78-1.18V4.57zm-4.38 0V3.7A1.63 1.63 0 0112 1.9a1.63 1.63 0 011.85 1.8v.87h-3.71zm5.08.56v4.65l-3.22 1-3.23-1V5.13h6.45z"/></symbol><symbol id="presentation" viewBox="0 0 18 16.2"><path d="M5.9 9.6V7h2.6a2.65 2.65 0 00-2.6-2.6A2.72 2.72 0 003.3 7a2.65 2.65 0 002.6 2.6"/><path d="M6.6 10.3a2.65 2.65 0 002.6-2.6H6.6z"/><path d="M10.3 4.7h4.5v.8h-4.5z"/><path d="M10.3 6.7h4.5v.8h-4.5z"/><path d="M10.3 8.5h4.5v.8h-4.5z"/><path d="M9.4 1V0h-.8v1.1H0v1.4h.6v10.4h7.8l-2.8 2.8.6.5 2.7-2.7 2.7 2.7.5-.5-2.8-2.8h7.8V2.5h.9V1zm7.2 11.1H1.4V2.5h15.1v9.6z"/></symbol><symbol id="public-dns" viewBox="0 0 60.58 56"><path d="M49.11 45.31a.72.72 0 01-.67.67H2.23a.72.72 0 01-.67-.67V18.37a.72.72 0 01.67-.67h40v-1.45H.67a.72.72 0 00-.67.67V49.1a.72.72 0 00.67.67h49.44a.72.72 0 00.67-.67V22.38l-1.67-.56z"/><path d="M32.18 55.67A3.27 3.27 0 0130.62 54a17.83 17.83 0 01-.45-2.89h-10a10.11 10.11 0 01-.46 2.89 3.27 3.27 0 01-1.56 1.67c-.33.22-.11.33.22.33h13.59c.33 0 .67-.11.22-.33z"/><path d="M52.45 11a1.35 1.35 0 00-1.34 1.34 1.37 1.37 0 00.56 1.11v2.67h1.62v-2.65a1.37 1.37 0 00.56-1.11 1.54 1.54 0 00-1.4-1.36z"/><path d="M44.43 19V7h2.58V5.45c0-3.51 1.92-5.45 5.44-5.45s5.46 1.94 5.46 5.46V6.9h2.67v12l-8 2.56zm8 .74l6.35-2V8.57H46.01v9.11zM56.01 6.9V5.45c0-3.16-1.9-3.56-3.56-3.56-3.16 0-3.56 1.9-3.56 3.56V6.9h7.12z"/><path d="M9.38 22.83v-1.17a.82.82 0 00-.85-1c-.79 0-.84.58-.84 1.15v2.7a1.54 1.54 0 011.32-.64 1.58 1.58 0 011.66 1.82v2.81a1.87 1.87 0 01-2.16 2.09 1.9 1.9 0 01-2.12-2.18V21.9a2.55 2.55 0 01.37-1.63 2.25 2.25 0 011.83-.69 1.87 1.87 0 012 1.25 3.38 3.38 0 01.08.92v1.08zm0 3.22a.81.81 0 00-.84-1 .85.85 0 00-.87 1v2.41a.85.85 0 00.87 1 .81.81 0 00.84-1V26z"/><path d="M15.55 28v2.49h-1.26V28h-3v-1.1l2.28-7.13h2v7.08h.72V28zm-1.26-6.8l-1.74 5.65h1.74z"/><path d="M17.01 30.48v-2h1.26v2z"/><path d="M22.42 22.83v-1.17a.82.82 0 00-.85-1c-.79 0-.84.58-.84 1.15v2.7a1.54 1.54 0 011.28-.64 1.58 1.58 0 011.66 1.82v2.81a1.87 1.87 0 01-2.17 2.09 1.9 1.9 0 01-2.12-2.18V21.9a2.55 2.55 0 01.37-1.63 2.25 2.25 0 011.83-.69 1.87 1.87 0 012 1.25 3.38 3.38 0 01.08.92v1.08zm0 3.22a.81.81 0 00-.84-1 .85.85 0 00-.87 1v2.41a.85.85 0 00.87 1 .81.81 0 00.84-1V26z"/><path d="M24.67 30.48v-2h1.25v2z"/><path d="M30.06 22.83v-1.17a.82.82 0 00-.85-1c-.79 0-.84.58-.84 1.15v2.7a1.54 1.54 0 011.33-.64 1.58 1.58 0 011.66 1.82v2.81a1.87 1.87 0 01-2.17 2.09 1.9 1.9 0 01-2.12-2.18V21.9a2.55 2.55 0 01.37-1.63 2.25 2.25 0 011.85-.69 1.87 1.87 0 012 1.25 3.38 3.38 0 01.08.92v1.08zm0 3.22a.81.81 0 00-.84-1 .85.85 0 00-.87 1v2.41a.85.85 0 00.87 1 .81.81 0 00.84-1V26z"/><path d="M36.22 28v2.49h-1.28V28h-3v-1.1l2.28-7.13h2v7.08h.79V28zm-1.3-6.79l-1.73 5.64h1.74V21.2z"/><path d="M37.7 30.48v-2h1.25v2z"/><path d="M43.09 22.83v-1.17a.82.82 0 00-.85-1c-.79 0-.84.58-.84 1.15v2.7a1.54 1.54 0 011.33-.64 1.58 1.58 0 011.66 1.83v2.8a1.87 1.87 0 01-2.17 2.09 1.9 1.9 0 01-2.12-2.18V21.9a2.55 2.55 0 01.37-1.63 2.25 2.25 0 011.82-.69 1.87 1.87 0 012 1.25 3.38 3.38 0 01.08.92v1.08zm0 3.22a.81.81 0 00-.8-1 .85.85 0 00-.87 1v2.41a.85.85 0 00.87 1.13.81.81 0 00.84-1V26z"/><path d="M9.38 37.2V36a.82.82 0 00-.85-1c-.79 0-.84.58-.84 1.15v2.7a1.54 1.54 0 011.32-.64A1.58 1.58 0 0110.68 40v2.79A1.87 1.87 0 018.51 45a1.9 1.9 0 01-2.12-2.18v-6.5a2.55 2.55 0 01.37-1.63A2.25 2.25 0 018.59 34a1.87 1.87 0 012 1.25 3.38 3.38 0 01.08.92v1zm0 3.22a.81.81 0 00-.84-1 .85.85 0 00-.87 1v2.41a.85.85 0 00.87 1 .81.81 0 00.84-1v-2.41z"/><path d="M15.55 42.36v2.49h-1.26v-2.49h-3v-1.1l2.28-7.13h2v7.08h.72v1.15zm-1.26-6.79l-1.74 5.65h1.74z"/><path d="M17.01 44.85v-2h1.26v2z"/><path d="M22.42 37.2V36a.82.82 0 00-.85-1c-.79 0-.84.58-.84 1.15v2.7a1.54 1.54 0 011.28-.64A1.58 1.58 0 0123.72 40v2.79A1.87 1.87 0 0121.55 45a1.9 1.9 0 01-2.12-2.18v-6.5a2.55 2.55 0 01.37-1.63 2.25 2.25 0 011.83-.69 1.87 1.87 0 012 1.25 3.38 3.38 0 01.08.92v1zm0 3.22a.81.81 0 00-.84-1 .85.85 0 00-.87 1v2.41a.85.85 0 00.87 1 .81.81 0 00.84-1v-2.41z"/><path d="M24.67 44.85v-2h1.25v2z"/><path d="M30.06 37.2V36a.82.82 0 00-.85-1c-.79 0-.84.58-.84 1.15v2.7a1.54 1.54 0 011.33-.64A1.58 1.58 0 0131.36 40v2.79A1.87 1.87 0 0129.19 45a1.9 1.9 0 01-2.12-2.18v-6.5a2.55 2.55 0 01.37-1.63 2.25 2.25 0 011.85-.69 1.87 1.87 0 012 1.25 3.38 3.38 0 01.08.92v1zm0 3.22a.81.81 0 00-.84-1 .85.85 0 00-.87 1v2.41a.85.85 0 00.87 1 .81.81 0 00.84-1v-2.41z"/><path d="M33.77 41.54v1.53a.74.74 0 00.63.83h.15a.82.82 0 00.86-1v-3.6a.76.76 0 00-.82-.9.79.79 0 00-.89 1v.23h-1.16v-5.49h3.86v1.24h-2.65v2.32a1.81 1.81 0 011.26-.44 1.51 1.51 0 011.7 1.74v4a1.78 1.78 0 01-2 2c-.75 0-2.21 0-2.21-1.86v-1.6h1.27z"/><path d="M37.7 44.85v-2h1.25v2z"/><path d="M43.09 37.2V36a.82.82 0 00-.85-1c-.79 0-.84.58-.84 1.15v2.7a1.54 1.54 0 011.33-.64A1.58 1.58 0 0144.39 40v2.79A1.87 1.87 0 0142.22 45a1.9 1.9 0 01-2.12-2.18v-6.5a2.55 2.55 0 01.37-1.63 2.25 2.25 0 011.82-.69 1.87 1.87 0 012 1.25 3.38 3.38 0 01.08.92v1zm0 3.22a.81.81 0 00-.84-1 .85.85 0 00-.87 1v2.41a.85.85 0 00.91 1.08.81.81 0 00.84-1v-2.5z"/></symbol><symbol id="refresh" viewBox="0 0 20 21.2"><path d="M11.3 1.5V0l-3 1.9 3 1.9V2.3a9.23 9.23 0 018 9 9.07 9.07 0 01-9.1 9.1A9 9 0 011 11.3a9.27 9.27 0 016.5-8.8l-1-.5A10 10 0 000 11.2a10 10 0 0020 0 9.75 9.75 0 00-8.7-9.7"/></symbol><symbol id="screen-www" viewBox="0 0 22 17.3"><path d="M21.7 0H.3a.27.27 0 00-.3.3v14a.27.27 0 00.3.3h21.4a.27.27 0 00.3-.3V.3a.27.27 0 00-.3-.3m-.4 12.6a.27.27 0 01-.3.3H1a.27.27 0 01-.3-.3V.9A.27.27 0 011 .6h20a.27.27 0 01.3.3z"/><path d="M13.9 17.1a1.58 1.58 0 01-.7-.7 4.34 4.34 0 01-.2-1.3H8.8a4.76 4.76 0 01-.2 1.3 1.21 1.21 0 01-.7.7c-.2.1 0 .2.1.2h5.9c.1-.1.2-.1 0-.2"/><path d="M6.7 6.9a.76.76 0 01-.1.4 4.33 4.33 0 01-.1.5V7l-.4-1.4h-.9L4.9 7v.2a1.76 1.76 0 00-.1.6 6.37 6.37 0 00-.2-.9l-.3-1.3h-.8l.8 2.8h.8l.5-2.2.3 1.2.2 1H7l.8-2.8h-.7z"/><path d="M11.5 6.9a.76.76 0 01-.1.4 4.33 4.33 0 01-.1.5V7l-.5-1.4H10L9.7 7v.2a1.76 1.76 0 00-.1.6 6.37 6.37 0 00-.2-.9L9 5.6h-.8L9 8.4h.8l.5-2.2.3 1.2.2 1h.8l.9-2.8h-.8z"/><path d="M16.2 6.9a.76.76 0 01-.1.4 4.33 4.33 0 01-.1.5V7l-.4-1.4h-.8L14.5 7v.2a1.76 1.76 0 00-.1.6 6.37 6.37 0 00-.2-.9l-.5-1.3H13l.8 2.8h.8l.5-2.2.3 1.2.2 1h.8l.9-2.8h-.8z"/><path d="M18.1 7.6c-.1 0-.3 0-.3.1a.4.4 0 10.6 0c-.1 0-.2-.1-.3-.1"/></symbol><symbol id="search" viewBox="0 0 22 22.4"><path d="M22 20.86l-6.17-6.52a8.88 8.88 0 10-1.54 1.53l6.18 6.53zM3.35 13.64a7.37 7.37 0 01.44-10 7.277 7.277 0 1110.13 10.45 7.36 7.36 0 01-10.57-.45"/></symbol><symbol id="servers" viewBox="0 0 20 19.6"><path d="M13.1 4V0H0v19.6h.8v-8.9h8.8v-.9H.8V9h8.8v-.9H.8v-.8h8.8v-1H.8V.8h11.5v18.8h.8v-6.8h4.1v-.7h-4.1v-.5h4.1V11h-4.1v-.5h4.1v-.6h-4.1V4.8h6.1v14.8h.8V4h-6.9z"/><circle cx="6.6" cy="15.8" r=".7"/><circle cx="15.5" cy="15.8" r=".5"/></symbol><symbol id="share" viewBox="0 0 24 24"><path d="M19.4 15.7c-1.3-.7-3-.5-4 .6l-5.8-3.4c.1-.6.1-1.2 0-1.7l5.8-3.4c1 1 2.7 1.3 4 .6 1.6-.9 2.2-3 1.3-4.6-.9-1.6-3-2.2-4.6-1.3-1.4.8-2 2.4-1.6 3.8L8.6 9.6c-1.3-1.3-3.4-1.3-4.8 0-1.3 1.3-1.3 3.5 0 4.8 1.3 1.3 3.4 1.3 4.8 0l5.8 3.4c-.4 1.5.3 3 1.6 3.8 1.6.9 3.7.3 4.6-1.3 1-1.7.4-3.7-1.2-4.6z"/></symbol><symbol id="smartphone" viewBox="0 0 24 24"><path d="M16.3 3H7.8c-.6 0-1.2.5-1.2 1.2v15.6c0 .7.5 1.3 1.2 1.3h8.4c.6 0 1.2-.5 1.2-1.2V4.2c0-.7-.5-1.2-1.1-1.2zm-4.2 17c-.4 0-.7-.4-.7-.7 0-.5.4-.7.7-.7.5 0 .7.4.7.7.1.3-.3.7-.7.7zm4.4-2.6H7.6V3.9h8.8v13.5z"/></symbol><symbol id="speedometer" viewBox="0 0 19.2 19"><path d="M9.5 0A9.56 9.56 0 000 9.5a7.67 7.67 0 00.7 3.4 3 3 0 00.4.8 9.23 9.23 0 003.3 3.8 2.51 2.51 0 00.7.4A9.36 9.36 0 009.6 19a9.66 9.66 0 004.5-1.1 4.35 4.35 0 00.7-.4 9.33 9.33 0 003.3-3.8 3 3 0 01.4-.8 9.37 9.37 0 00.7-3.4A9.87 9.87 0 009.5 0m-4 16.6a8 8 0 01-3.5-4 2.3 2.3 0 011.4-.4A2.8 2.8 0 016.2 15a3.29 3.29 0 01-.7 1.6m8 0a2.52 2.52 0 01-.6-1.7 2.8 2.8 0 012.8-2.8 3.26 3.26 0 011.4.4 8.53 8.53 0 01-3.6 4.1m3.8-4.6a3 3 0 00-1.6-.5 3.37 3.37 0 00-3.4 3.4 3.46 3.46 0 00.7 2 7.64 7.64 0 01-3.3.8 7 7 0 01-3.3-.8 3.46 3.46 0 00.7-2 3.68 3.68 0 00-3.6-3.4 3 3 0 00-1.6.5 6.9 6.9 0 01-.4-2.5 8.2 8.2 0 0116.4 0c-.2.9-.4 1.7-.6 2.5"/><path d="M9.5 4.1a.7.7 0 10-.7-.7.68.68 0 00.7.7"/><path d="M12.9 3.6a.59.59 0 00-.9.3.59.59 0 00.3.9.59.59 0 00.9-.3.81.81 0 00-.3-.9"/><path d="M14.4 5.9a.67.67 0 10.9.3c-.1-.4-.5-.5-.9-.3"/><path d="M14.9 9.5a.7.7 0 10.7-.7.68.68 0 00-.7.7"/><path d="M7 3.9a.66.66 0 00-.9-.3.75.75 0 00-.2 1 .76.76 0 00.9.2.63.63 0 00.2-.9"/><path d="M4.6 5.9a.75.75 0 00-1 .2.61.61 0 00.3.9.59.59 0 00.9-.3.83.83 0 00-.2-.8"/><path d="M3.4 8.8a.7.7 0 10.7.7.68.68 0 00-.7-.7"/><path d="M9.6 8.8a17.62 17.62 0 00-2.8-2.5 30.92 30.92 0 001.3 3.5c0 .1-.1.3-.1.4a1.26 1.26 0 001.3 1.3 2.35 2.35 0 00.8-.2 1.38 1.38 0 00.6-1.1 1.18 1.18 0 00-1.1-1.4"/></symbol><symbol id="tools" viewBox="0 0 18.01 17.91"><path d="M17.9 3.01l-2.8 2.8-2.8-2.8L15 .11a4.11 4.11 0 00-3.8 1 3.87 3.87 0 00-1 3.8l-9.6 9.6a1.93 1.93 0 000 2.8 1.93 1.93 0 002.8 0l9.6-9.6a4.11 4.11 0 003.8-1 3.75 3.75 0 001.1-3.7"/></symbol><symbol id="tv_noPBV" viewBox="0 0 80 32"><circle fill="#EF3E42" cx="25.1" cy="22.6" r="3.9"/><path d="M54.8 9l-4.3 13.4L46 9h-4.1l6.3 17.4h4.3L58.8 9z"/><path d="M37.2 21.5v-9.7h3.5V9h-3.5V5.2h-3.9V9h-2.9v2.9h2.9v9.9c0 2 .5 2.9 1.4 3.9 1.5 1.7 5.6.9 6 .9v-3c-3.2.6-3.5-.5-3.5-2.1z"/></symbol><symbol id="twitter" viewBox="0 0 20.2 16.2"><path d="M20.2 2a8.44 8.44 0 01-2.4.6A4.18 4.18 0 0019.6.3a8.25 8.25 0 01-2.6 1A4 4 0 0014 0a4.06 4.06 0 00-4.1 4.1 2.77 2.77 0 00.1.9A11.12 11.12 0 011.6.8 3.7 3.7 0 001 2.9a4 4 0 001.8 3.4 4.14 4.14 0 01-1.9-.5v.1a4.07 4.07 0 003.3 4 3.75 3.75 0 01-1.1.1 2.2 2.2 0 01-.8-.1 4 4 0 003.8 2.8A8.32 8.32 0 011 14.5a3.4 3.4 0 01-1-.1 11.32 11.32 0 006.3 1.8A11.68 11.68 0 0018 4.5V4a5.37 5.37 0 002.2-2z"/></symbol><symbol id="verisign_v" viewBox="0 0 20 20"><path d="M20 10A10 10 0 1110 0a10 10 0 0110 10zM10 1.9a8.1 8.1 0 108.1 8.1A8.07 8.07 0 0010 1.9z"/><path d="M13.8 9.5h-3.7l1.8-3h3.7l-1.8 3z"/><path d="M8.2 6.5H4.5L10 16l1.8-3.3-3.6-6.2z"/></symbol><symbol id="vrsn_name" viewBox="0 0 98.8 14.2"><path d="M9.1.4h3.6L8 13.9H4.6L0 .4h3.6L6.4 10z"/><path d="M13.8.4h10V3h-6.6v2.4h6.2V8h-6.2v3.2h7.2v2.7H13.8z"/><path d="M26.7.4h6.1c1.4 0 3.2 0 4.4 1.4a4.75 4.75 0 011.1 3 3.59 3.59 0 01-2.8 3.7l3.1 5.4h-3.7l-2.7-4.8h-2.1v4.8h-3.4zm3.4 2.5v3.6h2.8a1.79 1.79 0 002-1.9c0-1.7-1.2-1.8-1.9-1.8h-2.9z"/><path d="M44.2.4v13.5h-3.4V.4z"/><path d="M48.9 9.8a3.72 3.72 0 001.3 1.1 5.18 5.18 0 002.6.6c1.3 0 2.5-.6 2.5-1.6S53.9 8.7 53 8.5l-2.2-.3c-.8-.2-3.6-.8-3.6-3.7C47.2 1 50.3 0 52.6 0a8.24 8.24 0 016 2.6l-2.5 1.8a6.89 6.89 0 00-1.3-1.1 4.42 4.42 0 00-2.2-.6c-1.3 0-2 .8-2 1.4 0 1 1.1 1.2 1.7 1.3a24.73 24.73 0 014.1.8 3.42 3.42 0 012.3 3.3 4.77 4.77 0 01-1.1 2.9c-1.2 1.4-3.2 1.8-5.1 1.8a7.61 7.61 0 01-6.2-2.7z"/><path d="M64.6.4v13.5h-3.4V.4z"/><path d="M76.9 12.6a5.54 5.54 0 01-4 1.6c-3.8 0-6.1-3.1-6.1-7 0-4.3 2.8-7.2 6.6-7.2a7 7 0 015.9 3.1l-2.6 1.5a3.62 3.62 0 00-3.1-1.9c-2.6 0-3.5 2.1-3.5 4.4a4.62 4.62 0 001.1 3.4 3.22 3.22 0 002.5 1 4.49 4.49 0 001.9-.5 2.44 2.44 0 001.1-2h-3V6.4h5.9v7.5H77v-1.3z"/><path d="M82.3.4h3.3l2.9 5c1.1 1.9 1.4 2.5 2 3.7L90.4.4h3.2v13.5h-3.2l-2.5-4.3a48.28 48.28 0 01-2.4-4.2l.1 8.5h-3.2V.4z"/><path d="M97.4 3.3a1.4 1.4 0 111.4-1.4 1.37 1.37 0 01-1.4 1.4zm0-2.7a1.3 1.3 0 100 2.6A1.31 1.31 0 0098.7 2 1.35 1.35 0 0097.4.6zm.3 2.2l-.3-.7h-.2v.7h-.4V1h.6a.6.6 0 01.4.1.76.76 0 01.2.5.55.55 0 01-.3.5l.3.7zm-.3-1.5h-.2v.5h.2c.2 0 .3-.1.3-.2a.27.27 0 00-.3-.3z"/></symbol><symbol id="whois" viewBox="0 0 18.95 19.29"><path d="M18.95 17.89l-5.3-5.6a7.54 7.54 0 00-.6-10.1 7.76 7.76 0 00-10.7-.1 7.61 7.61 0 00-.2 10.8 7.78 7.78 0 0010.2.8l5.4 5.6zm-16.1-6.2a6.33 6.33 0 01.4-8.6 6.22 6.22 0 018.9.2 6.07 6.07 0 01-.2 8.7 6.13 6.13 0 01-9.1-.3z"/><path d="M8.15 10.29v-.5a2 2 0 01.6-1.6l1-1.5a1.66 1.66 0 00.5-1.2v-.9a.68.68 0 00-.7-.8c-.6 0-.8.3-.8.8v1.7h-1.8v-1c0-1.2.1-2.5 2.6-2.5 1.4 0 2.4.4 2.4 2.1v.8c0 .6-.1 1.1-.4 1.3l-1 1.4c-.6.8-.7 1-.7 1.7v.3h-1.7zm0 2.8v-1.9h1.8v1.9z"/></symbol><symbol id="x-thin" viewBox="0 0 14 14"><path d="M0 12.8L5.8 7 0 1.2 1.2 0 7 5.8 12.8 0 14 1.2 8.2 7l5.8 5.8-1.2 1.2L7 8.2 1.2 14 0 12.8z"/></symbol><symbol id="zone-file" viewBox="0 0 21.3 16.7"><path d="M20.85.15H.45a.27.27 0 00-.3.3v15.8a.27.27 0 00.3.3h20.3a.27.27 0 00.3-.3V.45c.2-.2.1-.3-.2-.3m-.2 15.6a.27.27 0 01-.3.3H1.05a.27.27 0 01-.3-.3v-12c0-.2.1-.4.3-.4h19.3c.2 0 .3.2.3.4v12zm0-13.3a.27.27 0 01-.3.3H1.05a.27.27 0 01-.3-.3v-1.4a.27.27 0 01.3-.3h19.3a.27.27 0 01.3.3z" stroke="inherit" stroke-miterlimit="10" stroke-width=".3"/><path d="M2.15 1.35c-.2 0-.4.3-.4.5a.43.43 0 00.4.4.43.43 0 00.4-.4c0-.2-.2-.5-.4-.5"/><path d="M3.75 1.35c-.2 0-.4.3-.4.5a.43.43 0 00.4.4.43.43 0 00.4-.4c0-.2-.2-.5-.4-.5"/><path d="M5.45 1.35a.64.64 0 00-.5.5.37.37 0 00.4.4.43.43 0 00.4-.4.38.38 0 00-.3-.5"/><path d="M16.25 9.75l-2.4-2.5h-1.5l2.4 2.5-2.4 2.4h1.5l2.4-2.4z"/><path d="M5.15 9.75l2.4 2.4h1.4l-2.4-2.4 2.4-2.5h-1.4l-2.4 2.5z"/><path d="M9.753 12.095l1.74-4.9.283.1-1.74 4.9z"/></symbol></svg>